{
.appVersion = "3207";
.formatVersion = 3;
axes = (
{
name = Weight;
tag = wght;
}
);
classes = (
{
code = "A' V Agrave Aacute Acircumflex Atilde Adieresis Aring AE afii10017";
name = ".Aleft";
},
{
code = "A' V W Agrave Aacute Acircumflex Atilde Adieresis Aring afii10017";
name = ".Aright";
},
{
code = "H' B D E F K L M N P R Egrave Eacute Ecircumflex Edieresis Ntilde Thorn germandbls uni0400";
name = ".Hleft";
},
{
code = "H' J M N Ntilde afii10057 uni040D";
name = ".Hright";
},
{
code = "O' C G Q OE Ccedilla Ograve Oacute Ocircumflex Otilde Odieresis Oslash";
name = ".Oleft";
},
{
code = "O' D D Q Eth Ograve Oacute Ocircumflex Otilde Odieresis Oslash";
name = ".Oright";
},
{
code = "U' Ugrave Uacute Ucircumflex Udieresis";
name = ".U";
},
{
code = "X' afii10039 afii10024";
name = ".Xleft";
},
{
code = "X' K afii10024 afii10039 afii10061 afii10028";
name = ".Xright";
},
{
code = "d' q afii10074 afii10075 afii10077 afii10078 afii10079 afii10081 afii10088 afii10090 afii10091 afii10093 uni045D afii10193 ugrave uacute ucircumflex udieresis";
name = ".dright";
},
{
code = "o' e c";
name = ".e_o";
},
{
code = "e' ae oe egrave eacute ecircumflex edieresis uni0450 afii10071 afii10070";
name = ".eright";
},
{
code = "l' i ";
name = ".l";
},
{
code = "n' b h k m p r ntilde thorn ";
name = ".nleft";
},
{
code = "n' h m ntilde";
name = ".nright";
},
{
code = "o' c d e q oe ccedilla egrave eacute ecircumflex edieresis eth ograve oacute ocircumflex otilde odieresis oslash";
name = ".oleft";
},
{
code = "o' b p ograve oacute ocircumflex otilde odieresis oslash thorn";
name = ".oright";
},
{
code = "v' w y afii10085 afii10110";
name = ".vleft";
},
{
code = "x' afii10072 afii10087";
name = ".xleft";
},
{
code = "x' k afii10072 afii10076 afii10087 afii10109";
name = ".xright";
},
{
code = "A Aacute Acircumflex Adieresis Agrave Aring Atilde uni0200 uni0202";
name = "@MMK_L_A";
},
{
code = "C Ccedilla";
name = "@MMK_L_C";
},
{

glyphs = (
{
glyphname = A;
kernLeft = A;
kernRight = A;
layers = (
{
layerId = "C1664359-F853-4045-A63D-7A2F9FE31172";
shapes = (
{
closed = 1;
nodes = (
(236,0,l),
(41,0,l),
(517,1437,l),
(718,1437,l),
(1193,0,l),
(997,0,l),
(899,327,l),
(335,327,l)
);
},
{
closed = 1;
nodes = (
(865,439,l),
(618,1243,l),
(368,439,l)
);
}
);
userData = {
org.robofab.postScriptHintData = {
};
};
vertWidth = 0;
width = 1234;
}
);
unicode = 65;
},
{
glyphname = AE;
layers = (
{
layerId = "C1664359-F853-4045-A63D-7A2F9FE31172";
shapes = (
{
closed = 1;
nodes = (
(706,288,l),
(351,288,l),
(240,0,l),
(19,0,l),
(581,1409,l),
(1459,1409,l),
(1459,1263,l),
(894,1263,l),
(894,810,l),
(1400,810,l),
(1400,665,l),
(894,665,l),
(894,146,l),
(1471,146,l),
(1471,0,l),
(706,0,l)
);
},
{
closed = 1;
nodes = (
(706,421,l),
(706,1276,l),
(599,960,l),
(387,421,l)
);
}
);
userData = {
org.robofab.postScriptHintData = {
};
};
vertWidth = 0;
width = 1576;
}
);
unicode = 198;
},
{
glyphname = B;
layers = (
{
layerId = "C1664359-F853-4045-A63D-7A2F9FE31172";
shapes = (
{
closed = 1;
nodes = (
(595,825,l),
(681,825,o),
(799,858,o),
(871,918,o),
(903,1008,o),
(903,1068,q),
(903,1138,o),
(864,1221,o),
(779,1270,o),
(645,1292,o),
(551,1292,q),
(362,1292,l),
(362,825,l)
);
},
{
closed = 1;
nodes = (
(973,501,o),
(929,608,o),
(837,672,o),
(697,698,o),
(601,698,q),
(362,698,l),
(362,144,l),
(604,144,l),
(695,144,o),
(834,166,o),
(926,223,o),
(973,329,o),
(973,417,q)
);
},
{
closed = 1;
nodes = (
(1151,200,o),
(902,0,o),
(652,0,q),
(181,0,l),
(181,1437,l),
(576,1437,l),
(715,1437,o),
(909,1395,o),
(1029,1305,o),
(1083,1164,o),
(1083,1060,q),
(1083,1008,o),
(1056,925,o),
(1011,863,o),
(956,816,o),
(899,788,o),
(846,774,o),
(827,772,q),
(918,765,o),
(989,725,q),
(1019,708,o),
(1078,656,o),
(1123,583,o),
(1151,483,o),
(1151,415,q)
);
}
);
userData = {
org.robofab.postScriptHintData = {
};
};
vertWidth = 0;
width = 1251;
}
);
unicode = 66;
},
{
glyphname = C;
kernLeft = C;
kernRight = C;
layers = (
{
layerId = "C1664359-F853-4045-A63D-7A2F9FE31172";
shapes = (
{
closed = 1;
nodes = (
(572,-24,o),
(364,45,o),
(210,219,o),
(121,512,o),
(120,727,q),
(120,935,o),
(209,1217,o),
(368,1390,o),
(585,1464,o),
(713,1464,q),
(794,1464,o),
(933,1445,o),
(984,1434,q),
(1044,1421,o),
(1092,1405,q),
(1108,1250,l),
(1058,1268,o),
(998,1283,q),
(947,1294,o),
(811,1314,o),
(734,1314,q),
(637,1314,o),
(483,1254,o),
(375,1118,o),
(318,897,o),
(318,729,q),
(319,570,o),
(368,337,o),
(467,192,o),
(616,126,o),
(715,127,q),
(798,126,o),
(940,147,o),
(994,163,q),
(1056,179,o),
(1108,199,q),
(1091,43,l),
(1042,24,o),
(980,9,q),
(927,-4,o),
(781,-24,o),
(693,-24,q)
);
}
);
userData = {
org.robofab.postScriptHintData = {
};
};
vertWidth = 0;
width = 1194;
}
);
unicode = 67;
},
{
glyphname = D;
layers = (
{
layerId = "C1664359-F853-4045-A63D-7A2F9FE31172";
shapes = (
{
closed = 1;
nodes = (
(721,144,o),
(912,205,o),
(1024,339,o),
(1069,567,o),
(1069,740,q),
(1069,881,o),
(1030,1085,o),
(933,1222,o),
(769,1292,o),
(645,1292,q),
(373,1292,l),
(373,144,l),
(575,144,l)
);
},
{
closed = 1;
nodes = (
(181,1437,l),
(593,1437,l),
(677,1437,o),
(840,1420,o),
(988,1367,o),
(1113,1274,o),
(1205,1123,o),
(1257,905,o),
(1257,748,q),
(1257,578,o),
(1204,304,o),
(1066,105,o),
(825,0,o),
(638,0,q),
(181,0,l)
);
}
);
userData = {
org.robofab.postScriptHintData = {
};
};
vertWidth = 0;
width = 1377;
}
);
unicode = 68;
},
{
glyphname = Eth;
layers = (
{
layerId = "C1664359-F853-4045-A63D-7A2F9FE31172";
shapes = (
{
closed = 1;
nodes = (
(194,677,l),
(45,677,l),
(45,806,l),
(194,806,l),
(194,1437,l),
(606,1437,l),
(690,1437,o),
(853,1420,o),
(1001,1368,o),
(1127,1276,o),
(1219,1126,o),
(1271,910,o),
(1271,749,q),
(1271,622,o),
(1249,427,o),
(1194,264,o),
(1103,136,o),
(965,47,o),
(777,0,o),
(652,0,q),
(194,0,l)
);
},
{
closed = 1;
nodes = (
(685,139,o),
(835,163,o),
(945,217,o),
(1019,306,o),
(1064,436,o),
(1083,611,o),
(1083,741,q),
(1083,886,o),
(1044,1088,o),
(946,1224,o),
(782,1293,o),
(658,1293,q),
(386,1293,l),
(386,806,l),
(612,806,l),
(612,677,l),
(386,677,l),
(386,139,l),
(588,139,l)
);
}
);
userData = {
org.robofab.postScriptHintData = {
};
};
vertWidth = 0;
width = 1391;
}
);
unicode = 208;
},
{
glyphname = E;
kernLeft = E;
kernRight = E;
layers = (
{
layerId = "C1664359-F853-4045-A63D-7A2F9FE31172";
shapes = (
{
closed = 1;
nodes = (
(181,1437,l),
(997,1437,l),
(973,1292,l),
(370,1292,l),
(370,809,l),
(862,809,l),
(862,670,l),
(370,670,l),
(370,145,l),
(995,145,l),
(972,0,l),
(181,0,l)
);
}
);
userData = {
org.robofab.postScriptHintData = {
};
};
vertWidth = 0;
width = 1086;
}
);
unicode = 69;
},
{
glyphname = F;
layers = (
{
layerId = "C1664359-F853-4045-A63D-7A2F9FE31172";
shapes = (
{
closed = 1;
nodes = (
(181,0,l),
(181,1437,l),
(1015,1437,l),
(991,1292,l),
(366,1292,l),
(366,820,l),
(921,820,l),
(921,672,l),
(366,672,l),
(366,0,l)
);
}
);
userData = {
org.robofab.postScriptHintData = {
};
};
vertWidth = 0;
width = 1083;
}
);
unicode = 70;
},
{
glyphname = G;
layers = (
{
layerId = "C1664359-F853-4045-A63D-7A2F9FE31172";
shapes = (
{
closed = 1;
nodes = (
(1070,125,l),
(1019,61,o),
(912,-24,o),
(699,-24,cs),
(373,-24,o),
(120,186,o),
(120,721,cs),
(120,1298,o),
(424,1464,o),
(751,1464,cs),
(919,1464,o),
(1042,1432,o),
(1128,1399,c),
(1142,1240,l),
(1057,1273,o),
(934,1314,o),
(756,1314,cs),
(472,1314,o),
(318,1137,o),
(318,749,cs),
(318,332,o),
(431,127,o),
(717,127,cs),
(891,127,o),
(997,199,o),
(1053,253,c),
(1053,609,l),
(782,609,l),
(763,743,l),
(1212,743,l),
(1212,4,l),
(1108,4,l)
);
}
);
userData = {
org.robofab.postScriptHintData = {
};
};
vertWidth = 0;
width = 1360;
}
);
unicode = 71;
},
{
glyphname = H;
layers = (
{
layerId = "C1664359-F853-4045-A63D-7A2F9FE31172";
shapes = (
{
closed = 1;
nodes = (
(366,677,l),
(366,0,l),
(181,0,l),
(181,1437,l),
(366,1437,l),
(366,817,l),
(1065,817,l),
(1065,1437,l),
(1250,1437,l),
(1250,0,l),
(1065,0,l),
(1065,677,l)
);
}
);
userData = {
org.robofab.postScriptHintData = {
};
};
vertWidth = 0;
width = 1431;
}
);
unicode = 72;
},
{
glyphname = I;
kernLeft = I;
kernRight = I;
layers = (
{
layerId = "C1664359-F853-4045-A63D-7A2F9FE31172";
shapes = (
{
closed = 1;
nodes = (
(189,1437,l),
(372,1437,l),
(372,0,l),
(189,0,l)
);
}
);
userData = {
org.robofab.postScriptHintData = {
};
};
vertWidth = 0;
width = 561;
}
);
unicode = 73;
},
{
glyphname = J;
layers = (
{
layerId = "C1664359-F853-4045-A63D-7A2F9FE31172";
shapes = (
{
closed = 1;
nodes = (
(35,53,l),
(104,53,o),
(202,65,o),
(268,95,o),
(307,145,o),
(327,222,o),
(333,328,o),
(333,399,q),
(333,1437,l),
(520,1437,l),
(516,308,l),
(516,226,o),
(481,84,o),
(386,-20,o),
(217,-81,o),
(83,-81,q),
(59,-14,l)
);
}
);
userData = {
org.robofab.postScriptHintData = {
};
};
vertWidth = 0;
width = 701;
}
);
unicode = 74;
},
{
glyphname = K;
layers = (
{
layerId = "C1664359-F853-4045-A63D-7A2F9FE31172";
shapes = (
{
closed = 1;
nodes = (
(637,780,l),
(1269,47,l),
(1269,0,l),
(1077,0,l),
(508,672,l),
(366,530,l),
(366,0,l),
(181,0,l),
(181,1437,l),
(366,1437,l),
(366,740,l),
(1032,1437,l),
(1217,1437,l),
(1217,1384,l)
);
}
);
userData = {
org.robofab.postScriptHintData = {
};
};
vertWidth = 0;
width = 1289;
}
);
unicode = 75;
},
{
glyphname = L;
layers = (
{
layerId = "C1664359-F853-4045-A63D-7A2F9FE31172";
shapes = (
{
closed = 1;
nodes = (
(181,1437,l),
(366,1437,l),
(366,142,l),
(954,142,l),
(937,0,l),
(181,0,l)
);
}
);
userData = {
org.robofab.postScriptHintData = {
};
};
vertWidth = 0;
width = 982;
}
);
unicode = 76;
},
{
glyphname = Lslash;
layers = (
{
layerId = "C1664359-F853-4045-A63D-7A2F9FE31172";
shapes = (
{
closed = 1;
nodes = (
(197,641,l),
(49,577,l),
(49,722,l),
(197,786,l),
(197,1408,l),
(382,1408,l),
(382,862,l),
(729,1014,l),
(729,870,l),
(382,717,l),
(382,145,l),
(970,145,l),
(953,0,l),
(197,0,l)
);
}
);
userData = {
org.robofab.postScriptHintData = {
};
};
vertWidth = 0;
width = 1014;
}
);
unicode = 321;
},
{
glyphname = M;
layers = (
{
layerId = "C1664359-F853-4045-A63D-7A2F9FE31172";
shapes = (
{
closed = 1;
nodes = (
(516,1437,l),
(837,380,l),
(905,149,l),
(967,380,l),
(1289,1437,l),
(1563,1437,l),
(1616,0,l),
(1433,0,l),
(1402,988,l),
(1401,1286,l),
(1316,941,l),
(1021,32,l),
(784,32,l),
(489,941,l),
(405,1286,l),
(402,987,l),
(362,0,l),
(178,0,l),
(242,1437,l)
);
}
);
userData = {
org.robofab.postScriptHintData = {
};
};
vertWidth = 0;
width = 1794;
}
);
unicode = 77;
},
{
glyphname = N;
kernLeft = N;
kernRight = N;
layers = (
{
layerId = "C1664359-F853-4045-A63D-7A2F9FE31172";
shapes = (
{
closed = 1;
nodes = (
(357,0,l),
(181,0,l),
(181,1437,l),
(371,1437,l),
(1122,289,l),
(1122,1437,l),
(1298,1437,l),
(1298,0,l),
(1116,1,l),
(357,1148,l)
);
}
);
userData = {
org.robofab.postScriptHintData = {
};
};
vertWidth = 0;
width = 1479;
}
);
unicode = 78;
},
{
glyphname = O;
kernLeft = O;
kernRight = O;
layers = (
{
layerId = "C1664359-F853-4045-A63D-7A2F9FE31172";
shapes = (
{
closed = 1;
nodes = (
(311,581,o),
(354,360,o),
(448,207,o),
(594,127,o),
(698,127,q),
(803,127,o),
(950,207,o),
(1044,360,o),
(1087,581,o),
(1087,722,q),
(1087,862,o),
(1044,1082,o),
(950,1234,o),
(803,1314,o),
(698,1314,q),
(595,1314,o),
(448,1234,o),
(355,1082,o),
(311,862,o),
(311,722,q)
);
},
{
closed = 1;
nodes = (
(120,1098,o),
(416,1464,o),
(698,1464,q),
(982,1464,o),
(1279,1098,o),
(1279,722,q),
(1279,342,o),
(982,-24,o),
(698,-24,q),
(557,-24,o),
(341,67,o),
(195,252,o),
(120,532,o),
(120,722,q)
);
}
);
userData = {
org.robofab.postScriptHintData = {
};
};
vertWidth = 0;
width = 1399;
}
);
unicode = 79;
},
{
glyphname = Oslash;
layers = (
{
layerId = "C1664359-F853-4045-A63D-7A2F9FE31172";
shapes = (
{
closed = 1;
nodes = (
(365,62,l),
(120,231,o),
(120,720,q),
(120,1098,o),
(415,1466,o),
(697,1466,q),
(776,1466,o),
(917,1434,o),
(977,1402,q),
(1060,1586,l),
(1117,1554,l),
(1033,1370,l),
(1158,1285,o),
(1278,959,o),
(1278,720,q),
(1278,338,o),
(981,-30,o),
(697,-30,q),
(538,-30,o),
(421,28,q),
(346,-135,l),
(289,-106,l)
);
},
{
closed = 1;
nodes = (
(802,117,o),
(949,198,o),
(1043,352,o),
(1086,578,o),
(1086,720,q),
(1086,884,o),
(1030,1136,o),
(961,1214,q),
(488,176,l),
(572,117,o),
(697,117,q)
);
},
{
closed = 1;
nodes = (
(311,548,o),
(372,299,o),
(439,222,q),
(911,1257,l),
(867,1290,o),
(760,1319,o),
(697,1319,q),
(594,1319,o),
(448,1238,o),
(355,1085,o),
(311,862,o),
(311,720,q)
);
}
);
userData = {
org.robofab.postScriptHintData = {
};
};
vertWidth = 0;
width = 1398;
}
);
unicode = 216;
},
{
glyphname = OE;
layers = (
{
layerId = "C1664359-F853-4045-A63D-7A2F9FE31172";
shapes = (
{
closed = 1;
nodes = (
(120,936,o),
(211,1213,o),
(367,1387,o),
(574,1464,o),
(691,1464,q),
(750,1464,o),
(846,1446,o),
(923,1414,o),
(982,1375,o),
(1004,1354,q),
(1055,1305,o),
(1080,1243,q),
(1080,1437,l),
(1878,1437,l),
(1878,1292,l),
(1265,1292,l),
(1265,826,l),
(1795,826,l),
(1795,681,l),
(1265,681,l),
(1265,146,l),
(1888,146,l),
(1888,0,l),
(1080,0,l),
(1080,216,l),
(1054,138,o),
(1003,99,q),
(981,77,o),
(922,35,o),
(845,2,o),
(749,-18,o),
(691,-18,q),
(574,-18,o),
(366,60,o),
(210,235,o),
(120,516,o),
(120,724,q)
);
},
{
closed = 1;
nodes = (
(318,552,o),
(372,326,o),
(470,188,o),
(607,130,o),
(691,130,q),
(776,130,o),
(915,188,o),
(1013,326,o),
(1066,552,o),
(1066,724,q),
(1066,902,o),
(1013,1124,o),
(915,1260,o),
(776,1317,o),
(691,1317,q),
(607,1317,o),
(470,1260,o),
(372,1124,o),
(318,902,o),
(318,724,q)
);
}
);
userData = {
org.robofab.postScriptHintData = {
};
};
vertWidth = 0;
width = 1988;
}
);
unicode = 338;
},
{
glyphname = P;
layers = (
{
layerId = "C1664359-F853-4045-A63D-7A2F9FE31172";
shapes = (
{
closed = 1;
nodes = (
(661,717,o),
(820,748,o),
(913,816,o),
(950,921,o),
(950,1000,q),
(950,1094,o),
(914,1207,o),
(818,1270,o),
(648,1293,o),
(513,1293,q),
(366,1293,l),
(366,717,l),
(540,717,l)
);
},
{
closed = 1;
nodes = (
(1143,876,o),
(1071,715,o),
(920,615,o),
(686,571,o),
(524,571,q),
(429,571,l),
(399,571,o),
(366,572,q),
(366,0,l),
(181,0,l),
(181,1437,l),
(490,1437,l),
(684,1437,o),
(936,1394,o),
(1084,1292,o),
(1143,1125,o),
(1143,998,q)
);
}
);
userData = {
org.robofab.postScriptHintData = {
};
};
vertWidth = 0;
width = 1221;
}
);
unicode = 80;
},
{
glyphname = Thorn;
layers = (
{
layerId = "C1664359-F853-4045-A63D-7A2F9FE31172";
shapes = (
{
closed = 1;
nodes = (
(665,512,o),
(824,543,o),
(917,610,o),
(954,714,o),
(954,787,q),
(954,876,o),
(918,987,o),
(822,1049,o),
(652,1071,o),
(517,1071,q),
(370,1071,l),
(370,512,l),
(544,512,l)
);
},
{
closed = 1;
nodes = (
(1147,669,o),
(1075,510,o),
(924,411,o),
(690,367,o),
(528,367,q),
(433,367,l),
(403,367,o),
(370,368,q),
(370,0,l),
(185,0,l),
(185,1409,l),
(370,1409,l),
(371,1216,l),
(494,1216,l),
(688,1216,o),
(940,1173,o),
(1088,1072,o),
(1147,907,o),
(1147,785,q)
);
}
);
userData = {
org.robofab.postScriptHintData = {
};
};
vertWidth = 0;
width = 1226;
}
);
unicode = 222;
},
{
glyphname = Q;
layers = (
{
layerId = "C1664359-F853-4045-A63D-7A2F9FE31172";
shapes = (
{
closed = 1;
nodes = (
(120,917,o),
(200,1200,o),
(350,1381,o),
(563,1464,o),
(696,1464,q),
(831,1464,o),
(1045,1381,o),
(1195,1200,o),
(1275,917,o),
(1275,722,q),
(1275,545,o),
(1207,282,o),
(1083,102,o),
(908,1,o),
(801,-14,q),
(827,-35,o),
(900,-94,o),
(990,-162,o),
(1094,-231,o),
(1151,-265,q),
(1151,-266,o),
(1137,-286,o),
(1117,-315,o),
(1093,-348,o),
(1073,-379,o),
(1059,-399,o),
(1059,-400,q),
(984,-359,o),
(847,-262,o),
(730,-162,o),
(634,-64,o),
(600,-20,q),
(487,-6,o),
(309,97,o),
(185,280,o),
(120,546,o),
(120,722,q)
);
},
{
closed = 1;
nodes = (
(311,582,o),
(354,359,o),
(448,206,o),
(594,127,o),
(698,127,q),
(801,127,o),
(948,206,o),
(1041,359,o),
(1084,582,o),
(1084,722,q),
(1084,861,o),
(1040,1083,o),
(947,1233,o),
(800,1314,o),
(698,1314,q),
(595,1314,o),
(448,1233,o),
(355,1083,o),
(311,861,o),
(311,722,q)
);
}
);
userData = {
org.robofab.postScriptHintData = {
};
};
vertWidth = 0;
width = 1395;
}
);
unicode = 81;
},
{
glyphname = R;
kernLeft = R;
kernRight = R;
layers = (
{
layerId = "C1664359-F853-4045-A63D-7A2F9FE31172";
shapes = (
{
closed = 1;
nodes = (
(979,0,l),
(569,600,l),
(369,600,l),
(369,0,l),
(181,0,l),
(181,1437,l),
(611,1437,l),
(730,1437,o),
(917,1404,o),
(1046,1313,o),
(1114,1155,o),
(1114,1028,q),
(1114,912,o),
(1051,762,o),
(950,671,o),
(822,626,o),
(756,618,q),
(1160,57,l),
(1160,0,l)
);
},
{
closed = 1;
nodes = (
(593,740,l),
(693,740,o),
(826,767,o),
(907,831,o),
(941,934,o),
(941,1011,q),
(941,1104,o),
(905,1216,o),
(818,1277,o),
(671,1299,o),
(561,1299,q),
(369,1299,l),
(369,740,l)
);
}
);
userData = {
org.robofab.postScriptHintData = {
};
};
vertWidth = 0;
width = 1230;
}
);
unicode = 82;
},
{
glyphname = S;
kernLeft = S;
kernRight = S;
layers = (
{
layerId = "C1664359-F853-4045-A63D-7A2F9FE31172";
shapes = (
{
closed = 1;
nodes = (
(103,1372,o),
(314,1465,o),
(586,1465,cs),
(705,1465,o),
(828,1443,o),
(936,1408,c),
(957,1244,l),
(881,1275,o),
(728,1313,o),
(584,1313,cs),
(400,1313,o),
(276,1266,o),
(276,1091,c),
(280,964,o),
(341,910,o),
(586,835,c),
(885,736,o),
(1024,673,o),
(1024,376,cs),
(1024,130,o),
(881,-24,o),
(533,-24,cs),
(336,-24,o),
(218,18,o),
(143,55,c),
(117,213,l),
(204,170,o),
(336,127,o),
(515,127,cs),
(719,127,o),
(838,181,o),
(838,380,cs),
(838,551,o),
(764,599,o),
(490,686,c),
(206,770,o),
(94,863,o),
(96,1097,c)
);
}
);
userData = {
org.robofab.postScriptHintData = {
};
};
vertWidth = 0;
width = 1118;
}
);
unicode = 83;
},
{
glyphname = T;
kernLeft = T;
kernRight = T;
layers = (
{
layerId = "C1664359-F853-4045-A63D-7A2F9FE31172";
shapes = (
{
closed = 1;
nodes = (
(628,0,l),
(441,0,l),
(441,1293,l),
(29,1293,l),
(29,1437,l),
(1043,1437,l),
(1019,1293,l),
(628,1293,l)
);
}
);
userData = {
org.robofab.postScriptHintData = {
};
};
vertWidth = 0;
width = 1072;
}
);
unicode = 84;
},
{
glyphname = U;
kernLeft = U;
kernRight = U;
layers = (
{
layerId = "C1664359-F853-4045-A63D-7A2F9FE31172";
shapes = (
{
closed = 1;
nodes = (
(808,127,o),
(940,165,o),
(1028,251,o),
(1073,401,o),
(1073,513,q),
(1073,1437,l),
(1263,1437,l),
(1263,500,l),
(1263,345,o),
(1182,143,o),
(1037,24,o),
(838,-24,o),
(721,-24,q),
(600,-24,o),
(398,25,o),
(253,146,o),
(173,348,o),
(173,501,q),
(173,1437,l),
(364,1437,l),
(364,513,l),
(364,401,o),
(405,251,o),
(492,165,o),
(627,127,o),
(720,127,q)
);
}
);
userData = {
org.robofab.postScriptHintData = {
};
};
vertWidth = 0;
width = 1436;
}
);
unicode = 85;
},
{
glyphname = V;
layers = (
{
layerId = "C1664359-F853-4045-A63D-7A2F9FE31172";
shapes = (
{
closed = 1;
nodes = (
(45,1437,l),
(256,1437,l),
(520,421,l),
(598,94,l),
(672,421,l),
(929,1437,l),
(1143,1437,l),
(731,0,l),
(459,0,l)
);
}
);
userData = {
org.robofab.postScriptHintData = {
};
};
vertWidth = 0;
width = 1189;
}
);
unicode = 86;
},
{
glyphname = W;
layers = (
{
layerId = "C1664359-F853-4045-A63D-7A2F9FE31172";
shapes = (
{
closed = 1;
nodes = (
(994,943,l),
(929,1262,l),
(866,942,l),
(642,0,l),
(366,0,l),
(79,1437,l),
(272,1437,l),
(476,325,l),
(512,124,l),
(550,322,l),
(794,1376,l),
(1066,1376,l),
(1311,321,l),
(1350,124,l),
(1386,325,l),
(1588,1437,l),
(1777,1437,l),
(1494,0,l),
(1218,0,l)
);
}
);
userData = {
org.robofab.postScriptHintData = {
};
};
vertWidth = 0;
width = 1858;
}
);
unicode = 87;
},
{
glyphname = X;
layers = (
{
layerId = "C1664359-F853-4045-A63D-7A2F9FE31172";
shapes = (
{
closed = 1;
nodes = (
(269,0,l),
(61,0,l),
(419,728,l),
(64,1437,l),
(272,1437,l),
(494,953,l),
(560,809,l),
(626,953,l),
(848,1437,l),
(1057,1437,l),
(697,728,l),
(1059,0,l),
(851,0,l),
(626,485,l),
(560,626,l),
(494,484,l)
);
}
);
userData = {
org.robofab.postScriptHintData = {
};
};
vertWidth = 0;
width = 1120;
}
);
unicode = 88;
},
{
glyphname = Y;
kernLeft = Y;
kernRight = Y;
layers = (
{
layerId = "C1664359-F853-4045-A63D-7A2F9FE31172";
shapes = (
{
closed = 1;
nodes = (
(1107,1437,l),
(667,450,l),
(667,0,l),
(465,0,l),
(465,449,l),
(27,1437,l),
(237,1437,l),
(467,871,l),
(565,609,l),
(572,609,l),
(666,871,l),
(899,1437,l)
);
}
);
userData = {
org.robofab.postScriptHintData = {
};
};
vertWidth = 0;
width = 1133;
}
);
unicode = 89;
},
{
glyphname = Z;
kernLeft = Z;
kernRight = Z;
layers = (
{
layerId = "C1664359-F853-4045-A63D-7A2F9FE31172";
shapes = (
{
closed = 1;
nodes = (
(619,972,l),
(840,1292,l),
(638,1287,l),
(88,1287,l),
(112,1437,l),
(1004,1437,l),
(1020,1273,l),
(392,291,l),
(281,141,l),
(484,147,l),
(1006,147,l),
(983,0,l),
(107,0,l),
(92,156,l)
);
}
);
userData = {
org.robofab.postScriptHintData = {
};
};
vertWidth = 0;
width = 1104;
}
);
unicode = 90;
},
{
glyphname = a;
kernLeft = a;
kernRight = a;
layers = (
{
layerId = "C1664359-F853-4045-A63D-7A2F9FE31172";
shapes = (
{
closed = 1;
nodes = (
(446,453,o),
(245,443,o),
(245,268,cs),
(245,165,o),
(314,117,o),
(435,117,cs),
(571,117,o),
(662,164,o),
(716,204,c),
(716,447,l),
(667,450,l),
(564,453,l)
);
},
{
closed = 1;
nodes = (
(900,143,o),
(912,136,o),
(960,136,cs),
(975,136,o),
(992,137,o),
(1006,137,c),
(992,2,l),
(992,2,o),
(912,-3,o),
(881,-3,cs),
(767,-3,o),
(730,80,o),
(730,117,c),
(687,58,o),
(592,-18,o),
(374,-18,cs),
(196,-18,o),
(76,96,o),
(76,275,cs),
(76,514,o),
(302,568,o),
(534,568,cs),
(581,568,o),
(626,564,o),
(661,561,c),
(716,553,l),
(716,666,ls),
(716,879,o),
(656,912,o),
(485,912,cs),
(351,912,o),
(236,878,o),
(157,848,c),
(177,996,l),
(240,1023,o),
(337,1053,o),
(499,1053,cs),
(823,1053,o),
(900,935,o),
(900,611,cs),
(900,221,ls)
);
}
);
userData = {
org.robofab.postScriptHintData = {
};
};
vertWidth = 0;
width = 1074;
}
);
unicode = 97;
},
{
glyphname = ae;
layers = (
{
layerId = "C1664359-F853-4045-A63D-7A2F9FE31172";
shapes = (
{
closed = 1;
nodes = (
(1449,7,o),
(1402,-4,q),
(1362,-13,o),
(1254,-28,o),
(1190,-28,q),
(959,-28,o),
(842,116,q),
(827,101,o),
(758,53,o),
(646,6,o),
(489,-28,o),
(386,-28,q),
(318,-28,o),
(206,11,o),
(126,86,o),
(82,197,o),
(82,268,q),
(82,336,o),
(130,433,o),
(210,499,o),
(316,536,o),
(432,554,o),
(551,557,o),
(604,555,q),
(625,553,o),
(667,551,o),
(684,549,q),
(703,547,o),
(722,546,q),
(722,651,l),
(722,717,o),
(704,806,o),
(665,861,o),
(600,888,o),
(554,892,q),
(455,901,o),
(257,869,o),
(163,836,q),
(183,969,l),
(226,991,o),
(322,1020,o),
(422,1034,o),
(524,1036,o),
(572,1032,q),
(681,1023,o),
(821,933,o),
(840,839,q),
(868,895,o),
(942,970,o),
(1027,1016,o),
(1121,1035,o),
(1171,1035,q),
(1266,1035,o),
(1407,975,o),
(1502,876,o),
(1550,748,o),
(1552,679,q),
(1552,658,o),
(1549,603,o),
(1544,550,o),
(1539,506,o),
(1537,496,q),
(914,496,l),
(914,460,l),
(914,371,o),
(949,247,o),
(1012,166,o),
(1099,124,o),
(1150,117,q),
(1205,111,o),
(1311,117,o),
(1405,131,o),
(1483,148,o),
(1510,154,q),
(1486,20,l)
);
},
{
closed = 1;
nodes = (
(517,445,o),
(404,436,o),
(311,400,o),
(251,326,o),
(251,261,q),
(251,179,o),
(350,106,o),
(441,106,q),
(506,106,o),
(619,135,o),
(706,172,o),
(763,209,o),
(773,217,q),
(763,240,o),
(747,297,o),
(734,356,o),
(727,415,o),
(726,439,q),
(700,440,o),
(674,442,q),
(651,443,o),
(596,445,o),
(570,445,q)
);
},
{
closed = 1;
nodes = (
(1126,898,o),
(1038,869,o),
(969,801,o),
(923,690,o),
(917,608,q),
(1392,608,l),
(1393,607,o),
(1393,640,o),
(1393,656,q),
(1391,720,o),
(1358,811,o),
(1300,870,o),
(1222,898,o),
(1176,898,q)
);
}
);
userData = {
org.robofab.postScriptHintData = {
};
};
vertWidth = 0;
width = 1648;
}
);
unicode = 230;
},
{
glyphname = b;
layers = (
{
layerId = "C1664359-F853-4045-A63D-7A2F9FE31172";
shapes = (
{
closed = 1;
nodes = (
(158,1418,l),
(343,1437,l),
(343,956,l),
(379,980,o),
(425,999,q),
(464,1016,o),
(571,1043,o),
(637,1043,q),
(716,1043,o),
(858,982,o),
(965,852,o),
(1028,648,o),
(1028,507,q),
(1028,361,o),
(956,160,o),
(839,36,o),
(692,-18,o),
(616,-18,q),
(544,-18,o),
(434,18,o),
(396,41,q),
(352,67,o),
(320,101,q),
(294,-9,l),
(158,0,l)
);
},
{
closed = 1;
nodes = (
(373,190,o),
(411,169,q),
(443,151,o),
(533,122,o),
(588,122,q),
(640,122,o),
(733,163,o),
(802,254,o),
(843,399,o),
(843,503,q),
(843,692,o),
(723,901,o),
(601,901,q),
(546,901,o),
(453,876,o),
(418,861,q),
(378,843,o),
(343,822,q),
(343,217,l)
);
}
);
userData = {
org.robofab.postScriptHintData = {
};
};
vertWidth = 0;
width = 1134;
}
);
unicode = 98;
},
{
glyphname = c;
kernLeft = o;
kernRight = c;
layers = (
{
layerId = "C1664359-F853-4045-A63D-7A2F9FE31172";
shapes = (
{
closed = 1;
nodes = (
(106,608,o),
(141,769,o),
(202,889,o),
(285,970,o),
(382,1021,o),
(489,1043,o),
(543,1043,q),
(609,1043,o),
(717,1026,o),
(756,1015,q),
(802,1003,o),
(838,987,q),
(853,852,l),
(814,866,o),
(768,877,q),
(729,886,o),
(627,902,o),
(570,902,q),
(503,902,o),
(400,858,o),
(331,763,o),
(295,613,o),
(295,509,q),
(295,410,o),
(331,260,o),
(400,165,o),
(503,122,o),
(570,122,q),
(627,122,o),
(730,137,o),
(769,146,q),
(815,157,o),
(854,170,q),
(838,37,l),
(802,21,o),
(757,9,q),
(719,-2,o),
(612,-18,o),
(548,-18,q),
(465,-18,o),
(307,33,o),
(182,156,o),
(106,361,o),
(106,506,q)
);
}
);
userData = {
org.robofab.postScriptHintData = {
};
};
vertWidth = 0;
width = 925;
}
);
unicode = 99;
},
{
glyphname = d;
kernLeft = o;
layers = (
{
layerId = "C1664359-F853-4045-A63D-7A2F9FE31172";
shapes = (
{
closed = 1;
nodes = (
(438,-18,o),
(292,36,o),
(177,160,o),
(106,361,o),
(106,507,q),
(106,648,o),
(168,852,o),
(275,982,o),
(418,1043,o),
(499,1043,q),
(563,1043,o),
(671,1018,o),
(711,1004,q),
(758,987,o),
(796,966,q),
(796,1418,l),
(979,1437,l),
(979,0,l),
(836,-8,l),
(804,102,l),
(774,68,o),
(732,42,q),
(696,19,o),
(587,-18,o),
(512,-18,q)
);
},
{
closed = 1;
nodes = (
(597,122,o),
(690,152,o),
(724,170,q),
(764,191,o),
(796,219,q),
(796,833,l),
(759,852,o),
(717,867,q),
(680,880,o),
(584,901,o),
(528,901,q),
(408,901,o),
(290,693,o),
(290,503,q),
(290,399,o),
(330,254,o),
(399,163,o),
(490,122,o),
(541,122,q)
);
}
);
userData = {
org.robofab.postScriptHintData = {
};
};
vertWidth = 0;
width = 1135;
}
);
unicode = 100;
},
{
glyphname = eth;
layers = (
{
layerId = "C1664359-F853-4045-A63D-7A2F9FE31172";
shapes = (
{
closed = 1;
nodes = (
(571,1057,l),
(766,1122,l),
(748,1159,o),
(696,1236,o),
(639,1305,o),
(584,1359,o),
(562,1372,q),
(726,1371,l),
(785,1329,o),
(877,1228,o),
(912,1170,q),
(1113,1240,l),
(1149,1129,l),
(971,1067,l),
(1031,946,o),
(1086,696,o),
(1086,567,q),
(1086,438,o),
(1024,223,o),
(902,68,o),
(720,-18,o),
(599,-18,q),
(470,-18,o),
(284,57,o),
(164,181,o),
(106,343,o),
(106,429,q),
(106,514,o),
(153,661,o),
(255,769,o),
(417,831,o),
(532,831,q),
(604,831,o),
(728,797,o),
(824,754,o),
(886,712,o),
(895,703,q),
(894,741,o),
(883,824,o),
(863,906,o),
(834,984,o),
(815,1017,q),
(607,947,l)
);
},
{
closed = 1;
nodes = (
(478,693,o),
(379,655,o),
(316,586,o),
(286,487,o),
(286,426,q),
(286,272,o),
(442,125,o),
(591,125,q),
(676,125,o),
(791,188,o),
(862,296,o),
(893,441,o),
(893,523,q),
(893,582,l),
(843,612,o),
(787,637,q),
(739,658,o),
(613,693,o),
(546,693,q)
);
}
);
userData = {
org.robofab.postScriptHintData = {
};
};
vertWidth = 0;
width = 1202;
}
);
unicode = 240;
},
{
glyphname = e;
kernLeft = o;
kernRight = e;
layers = (
{
layerId = "C1664359-F853-4045-A63D-7A2F9FE31172";
shapes = (
{
closed = 1;
nodes = (
(510,906,o),
(423,877,o),
(353,809,o),
(306,698,o),
(300,608,q),
(773,608,l),
(773,624,o),
(774,633,q),
(775,641,o),
(775,657,o),
(775,664,q),
(773,728,o),
(739,819,o),
(681,878,o),
(603,906,o),
(557,906,q)
);
},
{
closed = 1;
nodes = (
(837,17,o),
(793,6,q),
(755,-3,o),
(653,-18,o),
(592,-18,q),
(350,-18,o),
(106,242,o),
(106,501,q),
(106,646,o),
(174,847,o),
(294,979,o),
(458,1043,o),
(553,1043,q),
(647,1043,o),
(789,983,o),
(883,884,o),
(932,756,o),
(934,687,q),
(934,666,o),
(931,603,o),
(926,550,o),
(921,506,o),
(918,496,q),
(297,496,l),
(297,460,l),
(297,368,o),
(341,234,o),
(422,155,o),
(536,122,o),
(605,122,q),
(662,122,o),
(765,135,o),
(805,143,q),
(852,152,o),
(892,164,q),
(873,30,l)
);
}
);
userData = {
org.robofab.postScriptHintData = {
};
};
vertWidth = 0;
width = 1017;
}
);
unicode = 101;
},
{
glyphname = f;
layers = (
{
layerId = "C1664359-F853-4045-A63D-7A2F9FE31172";
shapes = (
{
closed = 1;
nodes = (
(229,921,l),
(53,921,l),
(53,1025,l),
(230,1025,l),
(230,1034,ls),
(232,1140,o),
(266,1293,o),
(335,1391,o),
(442,1437,o),
(516,1437,q),
(561,1437,o),
(634,1425,o),
(660,1417,q),
(690,1408,o),
(713,1398,q),
(727,1278,l),
(703,1285,o),
(677,1291,q),
(654,1296,o),
(598,1304,o),
(569,1304,q),
(524,1304,o),
(464,1285,o),
(428,1235,o),
(412,1145,o),
(412,1075,q),
(412,1025,l),
(685,1025,l),
(685,921,l),
(412,921,l),
(412,0,l),
(229,0,l)
);
}
);
userData = {
org.robofab.postScriptHintData = {
};
};
vertWidth = 0;
width = 721;
}
);
unicode = 102;
},
{
glyphname = g;
kernLeft = o;
layers = (
{
layerId = "C1664359-F853-4045-A63D-7A2F9FE31172";
shapes = (
{
closed = 1;
nodes = (
(317,-295,o),
(357,-304,q),
(391,-312,o),
(480,-325,o),
(531,-325,q),
(606,-325,o),
(703,-294,o),
(761,-215,o),
(784,-79,o),
(785,39,q),
(785,72,l),
(753,52,o),
(711,36,q),
(675,22,o),
(571,0,o),
(504,0,q),
(427,0,o),
(284,57,o),
(173,180,o),
(106,375,o),
(106,509,q),
(106,649,o),
(160,851,o),
(263,981,o),
(411,1043,o),
(505,1043,q),
(570,1043,o),
(673,1017,o),
(751,981,o),
(803,944,o),
(818,932,q),
(851,1031,l),
(971,1031,l),
(971,67,l),
(971,-79,o),
(930,-280,o),
(832,-405,o),
(668,-461,o),
(546,-461,q),
(486,-461,o),
(395,-447,o),
(364,-439,q),
(328,-429,o),
(303,-417,q),
(283,-283,l)
);
},
{
closed = 1;
nodes = (
(539,140,l),
(597,141,o),
(688,160,o),
(720,171,q),
(757,184,o),
(785,200,q),
(785,822,l),
(752,843,o),
(712,861,q),
(678,876,o),
(587,901,o),
(533,901,q),
(465,901,o),
(373,845,o),
(316,745,o),
(291,605,o),
(291,520,q),
(291,434,o),
(319,292,o),
(377,193,o),
(465,141,o),
(527,140,q)
);
}
);
userData = {
org.robofab.postScriptHintData = {
};
};
vertWidth = 0;
width = 1129;
}
);
unicode = 103;
},
{
glyphname = h;
layers = (
{
layerId = "C1664359-F853-4045-A63D-7A2F9FE31172";
shapes = (
{
closed = 1;
nodes = (
(343,1437,l),
(343,925,l),
(384,957,o),
(464,1002,o),
(548,1030,o),
(637,1043,o),
(688,1043,q),
(775,1043,o),
(898,992,o),
(976,879,o),
(1011,702,o),
(1011,576,q),
(1011,0,l),
(826,0,l),
(826,562,l),
(826,664,o),
(802,796,o),
(755,872,o),
(686,902,o),
(641,902,q),
(595,902,o),
(503,873,o),
(424,836,o),
(361,801,o),
(343,795,q),
(343,0,l),
(158,0,l),
(158,1419,l)
);
}
);
userData = {
org.robofab.postScriptHintData = {
};
};
vertWidth = 0;
width = 1160;
}
);
unicode = 104;
},
{
glyphname = i;
kernLeft = i;
kernRight = i;
layers = (
{
layerId = "C1664359-F853-4045-A63D-7A2F9FE31172";
shapes = (
{
closed = 1;
nodes = (
(156,1025,l),
(340,1025,l),
(340,0,l),
(156,0,l)
);
},
{
closed = 1;
nodes = (
(344,1226,l),
(151,1226,l),
(151,1408,l),
(344,1408,l)
);
}
);
userData = {
org.robofab.postScriptHintData = {
};
};
vertWidth = 0;
width = 495;
}
);
unicode = 105;
},
{
glyphname = idotless;
layers = (
{
layerId = "C1664359-F853-4045-A63D-7A2F9FE31172";
shapes = (
{
closed = 1;
nodes = (
(158,1021,l),
(334,1021,l),
(334,0,l),
(158,0,l)
);
}
);
userData = {
org.robofab.postScriptHintData = {
};
};
vertWidth = 0;
width = 492;
}
);
unicode = 305;
},
{
glyphname = j;
layers = (
{
layerId = "C1664359-F853-4045-A63D-7A2F9FE31172";
shapes = (
{
closed = 1;
nodes = (
(341,133,l),
(341,52,o),
(306,-83,o),
(226,-196,o),
(96,-289,o),
(1,-326,q),
(-54,-203,l),
(5,-170,o),
(86,-105,o),
(136,-24,o),
(158,80,o),
(158,152,q),
(158,1025,l),
(341,1025,l)
);
},
{
closed = 1;
nodes = (
(345,1226,l),
(153,1226,l),
(153,1408,l),
(345,1408,l)
);
}
);
userData = {
org.robofab.postScriptHintData = {
};
};
vertWidth = 0;
width = 496;
}
);
unicode = 106;
},
{
glyphname = k;
layers = (
{
layerId = "C1664359-F853-4045-A63D-7A2F9FE31172";
shapes = (
{
closed = 1;
nodes = (
(841,0,l),
(433,468,l),
(343,385,l),
(343,0,l),
(158,0,l),
(158,1419,l),
(343,1437,l),
(343,564,l),
(812,1025,l),
(1007,1025,l),
(1007,986,l),
(565,559,l),
(1031,35,l),
(1031,0,l)
);
}
);
userData = {
org.robofab.postScriptHintData = {
};
};
vertWidth = 0;
width = 1047;
}
);
unicode = 107;
},
{
glyphname = l;
layers = (
{
layerId = "C1664359-F853-4045-A63D-7A2F9FE31172";
shapes = (
{
closed = 1;
nodes = (
(342,1437,l),
(342,0,l),
(158,0,l),
(158,1419,l)
);
}
);
userData = {
org.robofab.postScriptHintData = {
};
};
vertWidth = 0;
width = 500;
}
);
unicode = 108;
},
{
glyphname = lslash;
layers = (
{
layerId = "C1664359-F853-4045-A63D-7A2F9FE31172";
shapes = (
{
closed = 1;
nodes = (
(37,605,l),
(37,750,l),
(261,858,l),
(261,1470,l),
(445,1496,l),
(445,949,l),
(664,1055,l),
(664,911,l),
(445,805,l),
(445,0,l),
(261,0,l),
(261,713,l)
);
}
);
userData = {
org.robofab.postScriptHintData = {
};
};
vertWidth = 0;
width = 683;
}
);
unicode = 322;
},
{
glyphname = m;
layers = (
{
layerId = "C1664359-F853-4045-A63D-7A2F9FE31172";
shapes = (
{
closed = 1;
nodes = (
(1408,1043,o),
(1542,844,o),
(1542,642,q),
(1542,0,l),
(1356,0,l),
(1356,562,l),
(1356,654,o),
(1342,783,o),
(1309,864,o),
(1253,901,o),
(1211,901,q),
(1176,901,o),
(1090,881,o),
(1010,853,o),
(947,820,o),
(935,808,q),
(938,787,o),
(942,754,q),
(945,725,o),
(950,636,o),
(950,573,q),
(950,0,l),
(764,0,l),
(764,597,l),
(764,688,o),
(751,806,o),
(721,875,o),
(670,901,o),
(632,901,q),
(588,901,o),
(504,882,o),
(429,854,o),
(366,821,o),
(343,808,q),
(343,0,l),
(158,0,l),
(158,1025,l),
(287,1037,l),
(314,922,l),
(394,981,o),
(569,1043,o),
(669,1043,q),
(769,1043,o),
(884,978,o),
(907,919,q),
(938,945,o),
(1011,991,o),
(1099,1024,o),
(1203,1043,o),
(1266,1043,q)
);
}
);
userData = {
org.robofab.postScriptHintData = {
};
};
vertWidth = 0;
width = 1691;
}
);
unicode = 109;
},
{
glyphname = n;
kernLeft = n;
kernRight = n;
layers = (
{
layerId = "C1664359-F853-4045-A63D-7A2F9FE31172";
shapes = (
{
closed = 1;
nodes = (
(287,1037,l),
(314,922,l),
(338,940,o),
(409,983,o),
(500,1019,o),
(611,1043,o),
(674,1043,q),
(753,1043,o),
(876,998,o),
(962,899,o),
(1007,739,o),
(1007,624,q),
(1007,0,l),
(822,0,l),
(822,584,l),
(822,666,o),
(804,786,o),
(762,864,o),
(691,901,o),
(638,901,q),
(582,901,o),
(477,871,o),
(435,854,q),
(387,834,o),
(343,808,q),
(343,0,l),
(158,0,l),
(158,1025,l)
);
}
);
userData = {
org.robofab.postScriptHintData = {
};
};
vertWidth = 0;
width = 1156;
}
);
unicode = 110;
},
{
glyphname = o;
kernLeft = o;
kernRight = o;
layers = (
{
layerId = "C1664359-F853-4045-A63D-7A2F9FE31172";
shapes = (
{
closed = 1;
nodes = (
(675,1043,o),
(846,967,o),
(958,828,o),
(1013,632,o),
(1013,510,q),
(1013,394,o),
(958,198,o),
(846,59,o),
(675,-18,o),
(560,-18,q),
(444,-18,o),
(273,59,o),
(161,198,o),
(106,394,o),
(106,510,q),
(106,632,o),
(161,828,o),
(273,967,o),
(444,1043,o),
(560,1043,q)
);
},
{
closed = 1;
nodes = (
(635,122,o),
(737,178,o),
(800,282,o),
(827,427,o),
(827,512,q),
(827,606,o),
(799,750,o),
(736,849,o),
(634,901,o),
(560,901,q),
(485,901,o),
(383,849,o),
(320,750,o),
(293,606,o),
(293,512,q),
(293,427,o),
(320,282,o),
(383,178,o),
(485,122,o),
(560,122,q)
);
}
);
userData = {
org.robofab.postScriptHintData = {
};
};
vertWidth = 0;
width = 1119;
}
);
unicode = 111;
},
{
glyphname = oslash;
kernLeft = o;
layers = (
{
layerId = "C1664359-F853-4045-A63D-7A2F9FE31172";
shapes = (
{
closed = 1;
nodes = (
(611,1035,o),
(702,1018,o),
(741,1000,q),
(841,1226,l),
(923,1183,l),
(919,1175,o),
(899,1133,o),
(871,1072,o),
(837,998,o),
(820,960,q),
(918,892,o),
(1013,654,o),
(1013,504,q),
(1013,391,o),
(958,196,o),
(846,53,o),
(676,-28,o),
(560,-28,q),
(512,-28,o),
(429,-13,o),
(392,0,q),
(360,-75,o),
(314,-179,o),
(306,-197,q),
(221,-157,l),
(311,38,l),
(259,72,o),
(182,169,o),
(131,289,o),
(106,428,o),
(106,504,q),
(106,618,o),
(161,812,o),
(273,955,o),
(444,1035,o),
(560,1035,q)
);
},
{
closed = 1;
nodes = (
(293,408,o),
(335,245,o),
(383,192,q),
(682,868,l),
(656,882,o),
(596,896,o),
(560,896,q),
(485,896,o),
(383,839,o),
(320,735,o),
(293,592,o),
(293,506,q)
);
},
{
closed = 1;
nodes = (
(635,109,o),
(737,171,o),
(800,278,o),
(827,423,o),
(827,506,q),
(827,600,o),
(788,752,o),
(745,803,q),
(449,131,l),
(496,109,o),
(560,109,q)
);
}
);
userData = {
org.robofab.postScriptHintData = {
};
};
vertWidth = 0;
width = 1119;
}
);
unicode = 248;
},
{
glyphname = p;
layers = (
{
layerId = "C1664359-F853-4045-A63D-7A2F9FE31172";
shapes = (
{
closed = 1;
nodes = (
(311,927,l),
(344,951,o),
(417,994,o),
(503,1025,o),
(604,1043,o),
(666,1043,q),
(752,1043,o),
(887,980,o),
(981,851,o),
(1030,651,o),
(1030,514,q),
(1030,374,o),
(972,171,o),
(871,42,o),
(734,-18,o),
(655,-18,q),
(586,-18,o),
(472,9,o),
(430,26,q),
(382,45,o),
(343,71,q),
(343,-399,l),
(158,-415,l),
(158,1025,l),
(278,1036,l)
);
},
{
closed = 1;
nodes = (
(378,177,o),
(419,160,q),
(454,146,o),
(550,122,o),
(606,122,q),
(665,122,o),
(754,165,o),
(814,262,o),
(844,416,o),
(844,524,q),
(844,722,o),
(737,901,o),
(631,901,q),
(571,901,o),
(467,874,o),
(428,858,q),
(382,840,o),
(343,816,q),
(343,198,l)
);
}
);
userData = {
org.robofab.postScriptHintData = {
};
};
vertWidth = 0;
width = 1136;
}
);
unicode = 112;
},
{
glyphname = thorn;
layers = (
{
layerId = "C1664359-F853-4045-A63D-7A2F9FE31172";
shapes = (
{
closed = 1;
nodes = (
(158,1473,l),
(343,1499,l),
(343,958,l),
(379,982,o),
(425,1001,q),
(464,1018,o),
(571,1045,o),
(637,1045,q),
(716,1045,o),
(858,984,o),
(965,854,o),
(1028,650,o),
(1028,507,q),
(1028,361,o),
(956,160,o),
(839,36,o),
(692,-18,o),
(616,-18,q),
(548,-18,o),
(446,18,o),
(411,41,q),
(371,67,o),
(341,101,q),
(341,-349,l),
(158,-340,l)
);
},
{
closed = 1;
nodes = (
(373,190,o),
(411,169,q),
(443,151,o),
(534,122,o),
(589,122,q),
(641,122,o),
(733,163,o),
(802,254,o),
(843,399,o),
(843,503,q),
(843,694,o),
(723,903,o),
(601,903,q),
(546,903,o),
(453,878,o),
(418,863,q),
(378,845,o),
(343,824,q),
(343,217,l)
);
}
);
userData = {
org.robofab.postScriptHintData = {
};
};
vertWidth = 0;
width = 1134;
}
);
unicode = 254;
},
{
glyphname = q;
kernLeft = o;
layers = (
{
layerId = "C1664359-F853-4045-A63D-7A2F9FE31172";
shapes = (
{
closed = 1;
nodes = (
(767,-417,l),
(767,71,l),
(728,45,o),
(680,26,q),
(639,9,o),
(530,-18,o),
(466,-18,q),
(385,-18,o),
(252,52,o),
(158,188,o),
(106,385,o),
(106,509,q),
(106,641,o),
(159,840,o),
(259,975,o),
(404,1043,o),
(497,1043,q),
(544,1043,o),
(649,1035,o),
(750,1021,o),
(842,1001,o),
(911,985,o),
(931,979,q),
(952,974,l),
(952,-390,l)
);
},
{
closed = 1;
nodes = (
(483,901,o),
(391,865,o),
(326,776,o),
(290,627,o),
(290,512,q),
(290,316,o),
(406,122,o),
(527,122,q),
(572,122,o),
(657,145,o),
(691,159,q),
(731,175,o),
(767,196,q),
(767,875,l),
(727,883,o),
(687,889,q),
(652,894,o),
(574,901,o),
(539,901,q)
);
}
);
userData = {
org.robofab.postScriptHintData = {
};
};
vertWidth = 0;
width = 1107;
}
);
unicode = 113;
},
{
glyphname = r;
kernLeft = r;
kernRight = r;
layers = (
{
layerId = "C1664359-F853-4045-A63D-7A2F9FE31172";
shapes = (
{
closed = 1;
nodes = (
(618,1043,o),
(656,1036,o),
(671,1032,q),
(689,1027,o),
(704,1021,q),
(682,878,l),
(678,881,o),
(668,885,q),
(660,887,o),
(630,892,o),
(606,892,q),
(549,892,o),
(453,862,o),
(418,845,q),
(377,825,o),
(343,799,q),
(343,0,l),
(158,0,l),
(158,1025,l),
(287,1035,l),
(322,917,l),
(380,977,o),
(522,1043,o),
(598,1043,q)
);
}
);
userData = {
org.robofab.postScriptHintData = {
};
};
vertWidth = 0;
width = 736;
}
);
unicode = 114;
},
{
glyphname = s;
kernLeft = s;
kernRight = s;
layers = (
{
layerId = "C1664359-F853-4045-A63D-7A2F9FE31172";
shapes = (
{
closed = 1;
nodes = (
(102,979,o),
(295,1043,o),
(489,1043,cs),
(585,1043,o),
(682,1026,o),
(753,1001,c),
(773,854,l),
(726,868,o),
(601,899,o),
(490,899,cs),
(370,899,o),
(273,883,o),
(273,773,cs),
(273,684,o),
(313,660,o),
(519,607,cs),
(752,547,o),
(839,464,o),
(839,282,cs),
(839,67,o),
(655,-19,o),
(444,-19,cs),
(340,-19,o),
(231,2,o),
(132,38,c),
(113,189,l),
(154,172,o),
(302,126,o),
(433,126,cs),
(558,126,o),
(665,155,o),
(665,285,cs),
(665,379,o),
(615,413,o),
(410,465,cs),
(211,515,o),
(102,583,o),
(102,777,cs)
);
}
);
userData = {
org.robofab.postScriptHintData = {
};
};
vertWidth = 0;
width = 925;
}
);
unicode = 115;
},
{
glyphname = germandbls;
layers = (
{
layerId = "C1664359-F853-4045-A63D-7A2F9FE31172";
shapes = (
{
closed = 1;
nodes = (
(509,1402,o),
(431,1360,o),
(387,1284,o),
(372,1177,o),
(372,1112,q),
(372,-4,l),
(185,-4,l),
(185,1110,l),
(185,1331,o),
(377,1549,o),
(571,1549,q),
(663,1549,o),
(792,1518,o),
(877,1465,o),
(924,1392,o),
(942,1307,o),
(936,1214,o),
(927,1168,q),
(927,1159,o),
(917,1122,o),
(901,1074,o),
(880,1017,o),
(870,989,q),
(845,923,o),
(814,844,q),
(900,838,o),
(1058,764,o),
(1178,635,o),
(1250,453,o),
(1250,339,q),
(1250,216,o),
(1185,33,o),
(1071,-89,o),
(915,-149,o),
(823,-147,q),
(775,-146,o),
(697,-134,o),
(669,-126,q),
(636,-117,o),
(611,-107,q),
(591,34,l),
(616,23,o),
(647,15,q),
(673,8,o),
(746,-3,o),
(791,-3,q),
(866,-3,o),
(968,52,o),
(1031,148,o),
(1058,279,o),
(1058,356,q),
(1058,467,o),
(996,618,o),
(881,710,o),
(715,751,o),
(611,752,q),
(649,857,o),
(680,942,q),
(693,978,o),
(718,1049,o),
(738,1107,o),
(750,1147,o),
(750,1153,q),
(763,1201,o),
(768,1291,o),
(733,1360,o),
(648,1402,o),
(571,1402,q)
);
}
);
userData = {
org.robofab.postScriptHintData = {
};
};
vertWidth = 0;
width = 1334;
}
);
unicode = 223;
},
{
glyphname = t;
kernLeft = t;
kernRight = t;
layers = (
{
layerId = "C1664359-F853-4045-A63D-7A2F9FE31172";
shapes = (
{
closed = 1;
nodes = (
(376,-18,o),
(282,16,o),
(224,98,o),
(197,235,o),
(197,337,q),
(197,921,l),
(55,921,l),
(55,1025,l),
(204,1025,l),
(230,1345,l),
(379,1374,l),
(379,1025,l),
(635,1025,l),
(635,921,l),
(382,921,l),
(382,298,l),
(382,244,o),
(389,173,o),
(412,131,o),
(455,114,o),
(492,114,q),
(519,114,o),
(569,119,o),
(589,123,q),
(612,127,o),
(631,132,q),
(615,3,l),
(597,-4,o),
(571,-8,q),
(549,-12,o),
(486,-18,o),
(444,-18,q)
);
}
);
userData = {
org.robofab.postScriptHintData = {
};
};
vertWidth = 0;
width = 679;
}
);
unicode = 116;
},
{
glyphname = u;
kernLeft = u;
kernRight = u;
layers = (
{
layerId = "C1664359-F853-4045-A63D-7A2F9FE31172";
shapes = (
{
closed = 1;
nodes = (
(864,-11,l),
(839,118,l),
(800,80,o),
(746,50,q),
(700,24,o),
(569,-18,o),
(484,-18,q),
(310,-18,o),
(149,203,o),
(149,438,q),
(149,1025,l),
(333,1025,l),
(333,445,l),
(333,358,o),
(352,235,o),
(397,158,o),
(472,122,o),
(527,122,q),
(590,122,o),
(695,151,o),
(733,169,q),
(778,190,o),
(813,217,q),
(813,1025,l),
(998,1025,l),
(998,0,l)
);
}
);
userData = {
org.robofab.postScriptHintData = {
};
};
vertWidth = 0;
width = 1156;
}
);
unicode = 117;
},
{
glyphname = v;
layers = (
{
layerId = "C1664359-F853-4045-A63D-7A2F9FE31172";
shapes = (
{
closed = 1;
nodes = (
(45,1025,l),
(239,1025,l),
(482,161,l),
(732,1025,l),
(921,1025,l),
(594,0,l),
(373,0,l)
);
}
);
userData = {
org.robofab.postScriptHintData = {
};
};
vertWidth = 0;
width = 965;
}
);
unicode = 118;
},
{
glyphname = w;
layers = (
{
layerId = "C1664359-F853-4045-A63D-7A2F9FE31172";
shapes = (
{
closed = 1;
nodes = (
(321,0,l),
(64,1025,l),
(264,1025,l),
(451,93,l),
(618,1011,l),
(853,1011,l),
(1051,93,l),
(1213,1025,l),
(1414,1025,l),
(1175,0,l),
(931,0,l),
(735,877,l),
(567,0,l)
);
}
);
userData = {
org.robofab.postScriptHintData = {
};
};
vertWidth = 0;
width = 1485;
}
);
unicode = 119;
},
{
glyphname = x;
layers = (
{
layerId = "C1664359-F853-4045-A63D-7A2F9FE31172";
shapes = (
{
closed = 1;
nodes = (
(53,1025,l),
(247,1025,l),
(499,617,l),
(749,1025,l),
(945,1025,l),
(601,513,l),
(945,0,l),
(738,0,l),
(499,402,l),
(258,0,l),
(53,0,l),
(395,513,l)
);
}
);
userData = {
org.robofab.postScriptHintData = {
};
};
vertWidth = 0;
width = 997;
}
);
unicode = 120;
},
{
glyphname = y;
kernLeft = y;
kernRight = y;
layers = (
{
layerId = "C1664359-F853-4045-A63D-7A2F9FE31172";
shapes = (
{
closed = 1;
nodes = (
(738,1025,l),
(934,1025,l),
(581,-60,l),
(552,-149,o),
(503,-287,o),
(444,-381,o),
(367,-429,o),
(311,-429,q),
(249,-429,o),
(147,-405,o),
(110,-390,q),
(67,-373,o),
(32,-351,q),
(45,-225,l),
(85,-241,o),
(125,-252,q),
(160,-262,o),
(241,-278,o),
(279,-278,q),
(301,-278,o),
(331,-261,o),
(352,-230,o),
(367,-184,o),
(375,-154,q),
(399,-47,l),
(43,1025,l),
(242,1025,l),
(491,136,l)
);
}
);
userData = {
org.robofab.postScriptHintData = {
};
};
vertWidth = 0;
width = 979;
}
);
unicode = 121;
},
{
glyphname = z;
kernLeft = z;
kernRight = z;
layers = (
{
layerId = "C1664359-F853-4045-A63D-7A2F9FE31172";
shapes = (
{
closed = 1;
nodes = (
(273,134,l),
(461,138,l),
(799,138,l),
(799,0,l),
(84,0,l),
(84,153,l),
(616,890,l),
(378,885,l),
(101,885,l),
(101,1025,l),
(779,1025,l),
(811,882,l)
);
}
);
userData = {
org.robofab.postScriptHintData = {
};
};
vertWidth = 0;
width = 878;
}
);
unicode = 122;
},
{
glyphname = fi;
layers = (
{
layerId = "C1664359-F853-4045-A63D-7A2F9FE31172";
shapes = (
{
closed = 1;
nodes = (
(760,917,l),
(411,917,l),
(411,0,l),
(228,0,l),
(228,917,l),
(52,917,l),
(52,1021,l),
(229,1021,l),
(229,1068,l),
(231,1174,o),
(266,1327,o),
(335,1425,o),
(442,1471,o),
(516,1471,q),
(559,1471,o),
(628,1459,o),
(652,1451,q),
(680,1442,o),
(702,1432,q),
(710,1312,l),
(689,1319,o),
(666,1325,q),
(646,1330,o),
(595,1338,o),
(569,1338,q),
(524,1338,o),
(463,1319,o),
(427,1269,o),
(411,1179,o),
(411,1109,q),
(411,1021,l),
(944,1021,l),
(944,0,l),
(760,0,l)
);
},
{
closed = 1;
nodes = (
(947,1187,l),
(755,1187,l),
(755,1369,l),
(947,1369,l)
);
}
);
userData = {
org.robofab.postScriptHintData = {
};
};
vertWidth = 0;
width = 1102;
}
);
unicode = 64257;
},
{
glyphname = ordfeminine;
layers = (
{
layerId = "C1664359-F853-4045-A63D-7A2F9FE31172";
shapes = (
{
closed = 1;
nodes = (
(798,375,l),
(798,297,l),
(198,297,l),
(198,375,l)
);
},
{
pos = (59,527);
ref = a;
scale = (0.7362,0.7357);
}
);
userData = {
org.robofab.postScriptHintData = {
};
};
vertWidth = 0;
width = 953;
}
);
unicode = 170;
},
{
glyphname = ordmasculine;
layers = (
{
layerId = "C1664359-F853-4045-A63D-7A2F9FE31172";
shapes = (
{
closed = 1;
nodes = (
(739,375,l),
(739,297,l),
(190,297,l),
(190,375,l)
);
},
{
pos = (53,528);
ref = o;
scale = (0.734,0.7351);
}
);
userData = {
org.robofab.postScriptHintData = {
};
};
vertWidth = 0;
width = 930;
}
);
unicode = 186;
},
{
glyphname = pi;
layers = (
{
layerId = "C1664359-F853-4045-A63D-7A2F9FE31172";
shapes = (
{
closed = 1;
nodes = (
(570,866,l),
(462,421,l),
(436,319,o),
(376,176,o),
(311,82,o),
(243,29,o),
(173,3,o),
(104,-3,o),
(71,-3,q),
(69,6,o),
(59,47,o),
(48,91,o),
(38,131,o),
(36,140,q),
(84,140,o),
(161,166,o),
(224,236,o),
(278,358,o),
(304,455,q),
(316,501,o),
(344,606,o),
(373,715,o),
(401,820,o),
(413,866,q),
(219,866,l),
(224,898,o),
(236,964,o),
(242,997,q),
(1163,997,l),
(1157,964,o),
(1146,898,o),
(1140,866,q),
(970,866,l),
(949,732,o),
(908,468,o),
(887,334,q),
(878,277,o),
(875,195,o),
(891,142,o),
(932,116,o),
(967,116,q),
(997,116,o),
(1050,125,o),
(1070,130,q),
(1093,136,o),
(1112,145,q),
(1104,110,o),
(1088,42,o),
(1080,6,q),
(1061,-2,o),
(1037,-7,q),
(1016,-12,o),
(958,-20,o),
(922,-20,q),
(863,-20,o),
(774,18,o),
(721,101,o),
(706,234,o),
(720,329,q),
(805,866,l)
);
}
);
userData = {
org.robofab.postScriptHintData = {
};
};
vertWidth = 0;
width = 1204;
}
);
unicode = 960;
},
{
glyphname = zero;
layers = (
{
layerId = "C1664359-F853-4045-A63D-7A2F9FE31172";
shapes = (
{
closed = 1;
nodes = (
(738,123,o),
(863,202,o),
(932,345,o),
(957,548,o),
(957,674,q),
(957,796,o),
(930,1000,o),
(859,1145,o),
(735,1227,o),
(639,1227,q),
(543,1227,o),
(420,1146,o),
(349,1001,o),
(323,797,o),
(323,674,q),
(323,548,o),
(350,345,o),
(421,202,o),
(544,123,o),
(639,123,q)
);
},
{
closed = 1;
nodes = (
(133,834,o),
(183,1094,o),
(301,1274,o),
(495,1369,o),
(639,1369,q),
(784,1369,o),
(979,1274,o),
(1097,1094,o),
(1147,834,o),
(1147,673,q),
(1147,509,o),
(1095,249,o),
(975,71,o),
(781,-24,o),
(639,-24,q),
(497,-24,o),
(304,71,o),
(185,249,o),
(133,509,o),
(133,673,q)
);
}
);
userData = {
org.robofab.postScriptHintData = {
};
};
vertWidth = 0;
width = 1280;
}
);
unicode = 48;
},
{
glyphname = one;
layers = (
{
layerId = "C1664359-F853-4045-A63D-7A2F9FE31172";
shapes = (
{
closed = 1;
nodes = (
(299,1158,l),
(204,1106,l),
(97,1050,l),
(39,1191,l),
(338,1336,l),
(471,1309,l),
(471,0,l),
(295,0,l),
(296,972,l)
);
}
);
userData = {
org.robofab.postScriptHintData = {
};
};
vertWidth = 0;
width = 659;
}
);
unicode = 49;
},
{
glyphname = two;
layers = (
{
layerId = "C1664359-F853-4045-A63D-7A2F9FE31172";
shapes = (
{
closed = 1;
nodes = (
(586,1363,o),
(730,1310,o),
(825,1212,o),
(871,1077,o),
(871,996,q),
(871,934,o),
(842,828,o),
(792,728,o),
(722,633,o),
(682,585,q),
(304,144,l),
(856,144,l),
(836,0,l),
(120,0,l),
(90,146,l),
(553,700,l),
(577,729,o),
(627,797,o),
(666,872,o),
(691,950,o),
(691,993,q),
(691,1040,o),
(663,1123,o),
(606,1184,o),
(518,1217,o),
(458,1217,q),
(402,1217,o),
(283,1193,o),
(232,1179,q),
(173,1160,o),
(117,1140,q),
(137,1296,l),
(189,1314,o),
(247,1329,q),
(297,1342,o),
(422,1363,o),
(488,1363,q)
);
}
);
userData = {
org.robofab.postScriptHintData = {
};
};
vertWidth = 0;
width = 988;
}
);
unicode = 50;
},
{
glyphname = three;
layers = (
{
layerId = "C1664359-F853-4045-A63D-7A2F9FE31172";
shapes = (
{
closed = 1;
nodes = (
(138,186,o),
(209,168,o),
(306,147,o),
(422,132,o),
(479,132,q),
(537,132,o),
(632,161,o),
(698,218,o),
(734,306,o),
(734,367,q),
(734,430,o),
(694,528,o),
(600,595,o),
(445,628,o),
(330,628,q),
(330,789,l),
(436,789,o),
(579,810,o),
(664,861,o),
(700,947,o),
(700,1011,q),
(700,1070,o),
(662,1150,o),
(595,1200,o),
(504,1221,o),
(452,1221,q),
(405,1221,o),
(298,1208,o),
(203,1190,o),
(129,1171,o),
(115,1167,q),
(140,1320,l),
(156,1325,o),
(217,1341,o),
(299,1357,o),
(398,1370,o),
(452,1370,q),
(552,1370,o),
(714,1330,o),
(828,1246,o),
(889,1118,o),
(889,1030,q),
(889,976,o),
(868,891,o),
(834,825,o),
(790,779,o),
(768,761,q),
(715,724,o),
(648,712,q),
(729,706,o),
(792,670,q),
(819,652,o),
(871,604,o),
(911,533,o),
(936,437,o),
(936,376,q),
(936,258,o),
(864,104,o),
(739,12,o),
(571,-24,o),
(476,-24,q),
(414,-24,o),
(290,-7,o),
(185,15,o),
(107,36,o),
(91,40,q),
(125,189,l)
);
}
);
userData = {
org.robofab.postScriptHintData = {
};
};
vertWidth = 0;
width = 1061;
}
);
unicode = 51;
},
{
glyphname = four;
layers = (
{
layerId = "C1664359-F853-4045-A63D-7A2F9FE31172";
shapes = (
{
closed = 1;
nodes = (
(836,1328,l),
(837,397,l),
(1004,397,l),
(1004,257,l),
(837,257,l),
(837,-14,l),
(662,-19,l),
(662,257,l),
(84,257,l),
(38,379,l),
(570,1335,l)
);
},
{
closed = 1;
nodes = (
(662,839,l),
(672,1217,l),
(488,853,l),
(233,393,l),
(424,397,l),
(662,397,l)
);
}
);
userData = {
org.robofab.postScriptHintData = {
};
};
vertWidth = 0;
width = 1082;
}
);
unicode = 52;
},
{
glyphname = five;
layers = (
{
layerId = "C1664359-F853-4045-A63D-7A2F9FE31172";
shapes = (
{
closed = 1;
nodes = (
(196,667,o),
(180,684,o),
(170,694,q),
(143,721,l),
(163,1339,l),
(839,1339,l),
(824,1209,l),
(319,1209,l),
(301,809,l),
(332,815,o),
(367,820,q),
(397,825,o),
(474,832,o),
(516,832,q),
(602,832,o),
(750,785,o),
(858,685,o),
(920,530,o),
(920,425,q),
(920,314,o),
(875,145,o),
(767,32,o),
(589,-24,o),
(457,-24,q),
(398,-24,o),
(294,-8,o),
(254,3,q),
(207,15,o),
(168,31,q),
(149,183,l),
(191,169,o),
(240,157,q),
(282,147,o),
(390,132,o),
(450,132,q),
(535,132,o),
(650,162,o),
(719,229,o),
(748,341,o),
(748,424,q),
(748,481,o),
(715,577,o),
(649,647,o),
(549,689,o),
(482,689,q),
(396,689,o),
(244,675,o),
(197,667,q)
);
}
);
userData = {
org.robofab.postScriptHintData = {
};
};
vertWidth = 0;
width = 1028;
}
);
unicode = 53;
},
{
glyphname = six;
layers = (
{
layerId = "C1664359-F853-4045-A63D-7A2F9FE31172";
shapes = (
{
closed = 1;
nodes = (
(854,1202,o),
(709,1204,o),
(647,1195,q),
(560,1185,o),
(437,1114,o),
(359,993,o),
(322,818,o),
(321,705,q),
(346,722,o),
(420,770,o),
(518,812,o),
(637,842,o),
(706,842,q),
(794,842,o),
(942,784,o),
(1050,676,o),
(1110,522,o),
(1110,427,q),
(1110,340,o),
(1052,177,o),
(931,51,o),
(745,-24,o),
(616,-24,q),
(498,-24,o),
(316,60,o),
(193,220,o),
(130,452,o),
(130,600,q),
(130,770,o),
(182,1032,o),
(300,1217,o),
(492,1324,o),
(632,1337,q),
(695,1346,o),
(836,1346,o),
(918,1338,q),
(941,1191,l)
);
},
{
closed = 1;
nodes = (
(595,692,o),
(470,656,o),
(423,636,q),
(368,612,o),
(323,582,q),
(323,580,o),
(322,565,o),
(322,547,o),
(322,532,o),
(322,529,q),
(321,334,o),
(475,120,o),
(626,120,q),
(774,120,o),
(929,269,o),
(929,424,q),
(929,486,o),
(899,585,o),
(836,654,o),
(737,692,o),
(669,692,q)
);
}
);
userData = {
org.robofab.postScriptHintData = {
};
};
vertWidth = 0;
width = 1196;
}
);
unicode = 54;
},
{
glyphname = seven;
layers = (
{
layerId = "C1664359-F853-4045-A63D-7A2F9FE31172";
shapes = (
{
closed = 1;
nodes = (
(528,817,l),
(678,1174,l),
(370,1171,l),
(59,1171,l),
(69,1317,l),
(826,1317,l),
(867,1177,l),
(365,-24,l),
(205,48,l)
);
}
);
userData = {
org.robofab.postScriptHintData = {
};
};
vertWidth = 0;
width = 917;
}
);
unicode = 55;
},
{
glyphname = eight;
layers = (
{
layerId = "C1664359-F853-4045-A63D-7A2F9FE31172";
shapes = (
{
closed = 1;
nodes = (
(123,414,o),
(153,519,o),
(203,597,o),
(265,649,o),
(329,686,o),
(389,705,o),
(412,711,q),
(363,723,o),
(275,774,o),
(209,849,o),
(170,949,o),
(170,1013,q),
(170,1087,o),
(218,1215,o),
(318,1312,o),
(472,1367,o),
(577,1367,q),
(683,1367,o),
(839,1311,o),
(939,1214,o),
(988,1086,o),
(988,1013,q),
(988,948,o),
(944,847,o),
(873,774,o),
(781,723,o),
(733,711,q),
(775,702,o),
(879,657,o),
(970,575,o),
(1031,442,o),
(1031,345,q),
(1031,241,o),
(951,100,o),
(822,13,o),
(659,-24,o),
(577,-24,q),
(496,-24,o),
(333,13,o),
(204,100,o),
(123,241,o),
(123,345,q)
);
},
{
closed = 1;
nodes = (
(642,802,o),
(691,833,q),
(712,846,o),
(752,883,o),
(784,929,o),
(803,988,o),
(803,1023,q),
(803,1081,o),
(768,1156,o),
(708,1203,o),
(626,1222,o),
(579,1222,q),
(535,1222,o),
(453,1203,o),
(391,1156,o),
(354,1081,o),
(354,1023,q),
(354,988,o),
(373,928,o),
(405,882,o),
(445,845,o),
(466,832,q),
(515,801,o),
(579,785,q)
);
},
{
closed = 1;
nodes = (
(314,297,o),
(353,206,o),
(422,150,o),
(519,126,o),
(577,126,q),
(634,126,o),
(733,149,o),
(805,205,o),
(846,296,o),
(846,364,q),
(846,407,o),
(823,479,o),
(785,534,o),
(737,579,o),
(712,594,q),
(653,630,o),
(578,646,q),
(504,628,o),
(446,592,q),
(421,577,o),
(374,533,o),
(337,477,o),
(314,406,o),
(314,364,q)
);
}
);
userData = {
org.robofab.postScriptHintData = {
};
};
vertWidth = 0;
width = 1155;
}
);
unicode = 56;
},
{
glyphname = nine;
layers = (
{
layerId = "C1664359-F853-4045-A63D-7A2F9FE31172";
shapes = (
{
closed = 1;
nodes = (
(342,131,o),
(487,129,o),
(549,137,q),
(636,147,o),
(759,218,o),
(837,339,o),
(874,514,o),
(875,629,q),
(855,611,o),
(789,566,o),
(698,523,o),
(583,496,o),
(514,496,q),
(425,496,o),
(269,551,o),
(153,657,o),
(86,812,o),
(86,911,q),
(86,999,o),
(144,1162,o),
(265,1290,o),
(451,1365,o),
(580,1365,q),
(698,1365,o),
(879,1282,o),
(1002,1119,o),
(1066,886,o),
(1066,735,q),
(1066,565,o),
(1014,299,o),
(896,112,o),
(704,5,o),
(563,-8,q),
(500,-18,o),
(360,-18,o),
(278,-10,q),
(255,142,l)
);
},
{
closed = 1;
nodes = (
(617,642,o),
(735,678,o),
(779,698,q),
(830,722,o),
(873,753,q),
(873,756,o),
(874,774,o),
(874,792,o),
(874,807,o),
(874,810,q),
(874,908,o),
(835,1059,o),
(759,1165,o),
(645,1220,o),
(570,1220,q),
(421,1220,o),
(267,1070,o),
(267,913,q),
(267,850,o),
(299,750,o),
(367,681,o),
(473,642,o),
(548,642,q)
);
}
);
userData = {
org.robofab.postScriptHintData = {
};
};
vertWidth = 0;
width = 1196;
}
);
unicode = 57;
},
{
glyphname = fraction;
layers = (
{
layerId = "C1664359-F853-4045-A63D-7A2F9FE31172";
shapes = (
{
closed = 1;
nodes = (
(146,13,l),
(7,67,l),
(686,1432,l),
(827,1381,l)
);
}
);
userData = {
org.robofab.postScriptHintData = {
};
};
vertWidth = 0;
width = 832;
}
);
unicode = 8260;
},
{
glyphname = onesuperior;
layers = (
{
layerId = "C1664359-F853-4045-A63D-7A2F9FE31172";
shapes = (
{
closed = 1;
nodes = (
(289,798,l),
(203,751,l),
(98,697,l),
(43,829,l),
(326,966,l),
(448,939,l),
(448,0,l),
(289,0,l),
(289,599,l)
);
}
);
userData = {
org.robofab.postScriptHintData = {
};
};
vertWidth = 0;
width = 613;
}
);
unicode = 185;
},
{
glyphname = twosuperior;
layers = (
{
layerId = "C1664359-F853-4045-A63D-7A2F9FE31172";
shapes = (
{
closed = 1;
nodes = (
(495,988,o),
(616,950,o),
(697,881,o),
(737,784,o),
(737,726,q),
(737,683,o),
(714,606,o),
(674,535,o),
(617,467,o),
(584,434,q),
(292,136,l),
(722,136,l),
(710,0,l),
(113,0,l),
(93,136,l),
(474,542,l),
(490,560,o),
(523,603,o),
(550,649,o),
(566,698,o),
(566,722,q),
(566,777,o),
(483,849,o),
(395,849,q),
(349,849,o),
(250,829,o),
(208,818,q),
(159,804,o),
(112,787,q),
(131,933,l),
(172,948,o),
(219,960,q),
(259,971,o),
(360,988,o),
(414,988,q)
);
}
);
userData = {
org.robofab.postScriptHintData = {
};
};
vertWidth = 0;
width = 843;
}
);
unicode = 178;
},
{
glyphname = threesuperior;
layers = (
{
layerId = "C1664359-F853-4045-A63D-7A2F9FE31172";
shapes = (
{
closed = 1;
nodes = (
(162,141,o),
(208,130,q),
(247,120,o),
(345,105,o),
(395,105,q),
(604,105,o),
(604,250,q),
(604,290,o),
(571,349,o),
(494,388,o),
(369,407,o),
(277,407,q),
(277,536,l),
(363,536,o),
(477,553,o),
(545,589,o),
(573,644,o),
(573,682,q),
(573,760,o),
(471,820,o),
(371,820,q),
(334,820,o),
(251,810,o),
(177,797,o),
(122,785,o),
(113,783,q),
(134,910,l),
(172,920,o),
(213,929,q),
(248,936,o),
(334,948,o),
(376,948,q),
(564,948,o),
(732,820,o),
(732,699,q),
(732,636,o),
(680,554,o),
(612,505,o),
(549,481,o),
(537,476,q),
(547,475,o),
(589,468,o),
(642,451,o),
(698,421,o),
(744,370,o),
(774,296,o),
(774,244,q),
(774,170,o),
(713,68,o),
(608,4,o),
(470,-25,o),
(392,-25,q),
(338,-25,o),
(236,-9,o),
(153,11,o),
(98,29,o),
(91,31,q),
(120,155,l)
);
}
);
userData = {
org.robofab.postScriptHintData = {
};
};
vertWidth = 0;
width = 886;
}
);
unicode = 179;
},
{
glyphname = foursuperior;
layers = (
{
layerId = "C1664359-F853-4045-A63D-7A2F9FE31172";
shapes = (
{
closed = 1;
nodes = (
(705,956,l),
(705,335,l),
(865,335,l),
(865,215,l),
(705,215,l),
(705,0,l),
(548,-6,l),
(548,215,l),
(88,215,l),
(45,320,l),
(469,963,l)
);
},
{
closed = 1;
nodes = (
(548,613,l),
(552,853,l),
(396,601,l),
(222,332,l),
(408,335,l),
(548,335,l)
);
}
);
userData = {
org.robofab.postScriptHintData = {
};
};
vertWidth = 0;
width = 935;
}
);
unicode = 8308;
},
{
glyphname = period;
layers = (
{
layerId = "C1664359-F853-4045-A63D-7A2F9FE31172";
shapes = (
{
closed = 1;
nodes = (
(329,-9,l),
(139,-9,l),
(139,202,l),
(329,202,l)
);
}
);
userData = {
org.robofab.postScriptHintData = {
};
};
vertWidth = 0;
width = 469;
}
);
unicode = 46;
},
{
glyphname = comma;
layers = (
{
layerId = "C1664359-F853-4045-A63D-7A2F9FE31172";
shapes = (
{
closed = 1;
nodes = (
(364,216,l),
(366,192,o),
(369,164,q),
(371,140,o),
(375,78,o),
(375,43,q),
(375,-4,o),
(355,-83,o),
(309,-148,o),
(232,-197,o),
(174,-213,q),
(147,-133,l),
(203,-127,o),
(258,-53,o),
(258,0,q),
(138,0,l),
(138,200,l)
);
}
);
userData = {
org.robofab.postScriptHintData = {
};
};
vertWidth = 0;
width = 507;
}
);
unicode = 44;
},
{
glyphname = colon;
layers = (
{
layerId = "C1664359-F853-4045-A63D-7A2F9FE31172";
shapes = (
{
closed = 1;
nodes = (
(353,94,l),
(147,94,l),
(147,306,l),
(353,306,l)
);
},
{
closed = 1;
nodes = (
(353,591,l),
(148,591,l),
(148,805,l),
(353,805,l)
);
}
);
userData = {
org.robofab.postScriptHintData = {
};
};
vertWidth = 0;
width = 501;
}
);
unicode = 58;
},
{
glyphname = semicolon;
layers = (
{
layerId = "C1664359-F853-4045-A63D-7A2F9FE31172";
shapes = (
{
closed = 1;
nodes = (
(357,591,l),
(152,591,l),
(152,805,l),
(357,805,l)
);
},
{
closed = 1;
nodes = (
(355,195,l),
(358,175,o),
(361,150,q),
(363,129,o),
(367,74,o),
(367,43,q),
(367,-4,o),
(349,-83,o),
(308,-148,o),
(239,-197,o),
(188,-213,q),
(160,-133,l),
(206,-127,o),
(250,-53,o),
(250,0,q),
(152,0,l),
(152,189,l)
);
}
);
userData = {
org.robofab.postScriptHintData = {
};
};
vertWidth = 0;
width = 514;
}
);
unicode = 59;
},
{
glyphname = ellipsis;
layers = (
{
layerId = "C1664359-F853-4045-A63D-7A2F9FE31172";
shapes = (
{
closed = 1;
nodes = (
(688,-4,l),
(495,-4,l),
(495,185,l),
(688,185,l)
);
},
{
closed = 1;
nodes = (
(1053,-4,l),
(860,-4,l),
(860,185,l),
(1053,185,l)
);
},
{
closed = 1;
nodes = (
(324,-4,l),
(134,-4,l),
(134,185,l),
(324,185,l)
);
}
);
userData = {
org.robofab.postScriptHintData = {
};
};
vertWidth = 0;
width = 1187;
}
);
unicode = 8230;
},
{
glyphname = exclam;
layers = (
{
layerId = "C1664359-F853-4045-A63D-7A2F9FE31172";
shapes = (
{
closed = 1;
nodes = (
(173,-14,l),
(173,165,l),
(348,165,l),
(348,-14,l)
);
},
{
closed = 1;
nodes = (
(212,426,o),
(204,540,q),
(197,637,o),
(177,944,o),
(163,1162,q),
(163,1169,o),
(162,1200,o),
(160,1257,o),
(159,1343,o),
(158,1404,q),
(362,1404,l),
(361,1343,o),
(359,1257,o),
(358,1200,o),
(357,1169,o),
(357,1162,q),
(343,944,o),
(323,637,o),
(316,540,q),
(308,426,o),
(303,355,q),
(217,355,l)
);
}
);
userData = {
org.robofab.postScriptHintData = {
};
};
vertWidth = 0;
width = 523;
}
);
unicode = 33;
},
{
glyphname = question;
layers = (
{
layerId = "C1664359-F853-4045-A63D-7A2F9FE31172";
shapes = (
{
closed = 1;
nodes = (
(804,998,o),
(736,868,o),
(633,779,o),
(514,722,o),
(411,675,o),
(343,631,o),
(343,600,q),
(343,302,l),
(192,302,l),
(192,590,l),
(192,643,o),
(230,720,o),
(293,777,o),
(372,820,o),
(456,861,o),
(535,904,o),
(598,961,o),
(636,1037,o),
(636,1090,q),
(636,1143,o),
(610,1218,o),
(553,1266,o),
(460,1288,o),
(393,1288,q),
(340,1288,o),
(235,1274,o),
(192,1266,q),
(142,1256,o),
(96,1244,q),
(96,1246,o),
(98,1290,o),
(99,1342,o),
(101,1386,o),
(101,1388,q),
(146,1401,o),
(195,1412,q),
(237,1421,o),
(341,1437,o),
(394,1437,q),
(511,1437,o),
(669,1382,o),
(764,1288,o),
(804,1163,o),
(804,1093,q)
);
},
{
closed = 1;
nodes = (
(173,101,o),
(189,142,o),
(216,173,o),
(253,191,o),
(274,191,q),
(296,191,o),
(334,173,o),
(363,142,o),
(379,101,o),
(379,78,q),
(379,56,o),
(363,18,o),
(334,-11,o),
(296,-28,o),
(274,-28,q),
(253,-28,o),
(216,-11,o),
(189,18,o),
(173,56,o),
(173,78,q)
);
}
);
userData = {
org.robofab.postScriptHintData = {
};
};
vertWidth = 0;
width = 872;
}
);
unicode = 63;
},
{
glyphname = periodcentered;
layers = (
{
layerId = "C1664359-F853-4045-A63D-7A2F9FE31172";
shapes = (
{
closed = 1;
nodes = (
(321,477,l),
(148,477,l),
(148,672,l),
(321,672,l)
);
}
);
userData = {
org.robofab.postScriptHintData = {
};
};
vertWidth = 0;
width = 469;
}
);
unicode = 183;
},
{
glyphname = bullet;
layers = (
{
layerId = "C1664359-F853-4045-A63D-7A2F9FE31172";
shapes = (
{
closed = 1;
nodes = (
(811,521,o),
(749,393,o),
(649,307,o),
(525,264,o),
(464,264,q),
(384,264,o),
(256,319,o),
(165,413,o),
(116,537,o),
(116,605,q),
(116,677,o),
(168,802,o),
(261,895,o),
(389,949,o),
(464,949,q),
(539,949,o),
(666,894,o),
(759,801,o),
(811,676,o),
(811,607,q)
);
}
);
userData = {
org.robofab.postScriptHintData = {
};
};
vertWidth = 0;
width = 926;
}
);
unicode = 8226;
},
{
glyphname = asterisk;
layers = (
{
layerId = "C1664359-F853-4045-A63D-7A2F9FE31172";
shapes = (
{
closed = 1;
nodes = (
(212,777,l),
(357,1017,l),
(94,1008,l),
(94,1118,l),
(359,1110,l),
(225,1348,l),
(322,1403,l),
(438,1163,l),
(569,1409,l),
(666,1351,l),
(516,1109,l),
(782,1118,l),
(782,1008,l),
(519,1017,l),
(655,776,l),
(551,719,l),
(438,964,l),
(309,722,l)
);
}
);
userData = {
org.robofab.postScriptHintData = {
};
};
vertWidth = 0;
width = 875;
}
);
unicode = 42;
},
{
glyphname = numbersign;
layers = (
{
layerId = "C1664359-F853-4045-A63D-7A2F9FE31172";
shapes = (
{
closed = 1;
nodes = (
(395,103,l),
(245,103,l),
(278,430,l),
(88,430,l),
(98,559,l),
(290,559,l),
(334,992,l),
(139,992,l),
(153,1119,l),
(348,1119,l),
(382,1462,l),
(533,1462,l),
(498,1119,l),
(809,1119,l),
(841,1460,l),
(993,1460,l),
(960,1119,l),
(1139,1119,l),
(1124,992,l),
(945,992,l),
(901,559,l),
(1092,559,l),
(1082,430,l),
(888,430,l),
(856,102,l),
(703,102,l),
(739,430,l),
(429,430,l)
);
},
{
closed = 1;
nodes = (
(792,992,l),
(486,992,l),
(443,559,l),
(749,559,l)
);
}
);
userData = {
org.robofab.postScriptHintData = {
};
};
vertWidth = 0;
width = 1226;
}
);
unicode = 35;
},
{
glyphname = slash;
layers = (
{
layerId = "C1664359-F853-4045-A63D-7A2F9FE31172";
shapes = (
{
closed = 1;
nodes = (
(247,-202,l),
(79,-164,l),
(448,1490,l),
(621,1451,l)
);
}
);
userData = {
org.robofab.postScriptHintData = {
};
};
vertWidth = 0;
width = 698;
}
);
unicode = 47;
},
{
glyphname = backslash;
layers = (
{
layerId = "C1664359-F853-4045-A63D-7A2F9FE31172";
shapes = (
{
closed = 1;
nodes = (
(620,-179,l),
(461,-220,l),
(78,1492,l),
(238,1533,l)
);
}
);
userData = {
org.robofab.postScriptHintData = {
};
};
vertWidth = 0;
width = 698;
}
);
unicode = 92;
},
{
glyphname = hyphen;
layers = (
{
layerId = "C1664359-F853-4045-A63D-7A2F9FE31172";
shapes = (
{
closed = 1;
nodes = (
(146,578,l),
(659,578,l),
(659,448,l),
(146,448,l)
);
}
);
userData = {
org.robofab.postScriptHintData = {
};
};
vertWidth = 0;
width = 805;
}
);
unicode = 45;
},
{
glyphname = endash;
layers = (
{
layerId = "C1664359-F853-4045-A63D-7A2F9FE31172";
shapes = (
{
closed = 1;
nodes = (
(135,903,l),
(909,903,l),
(909,758,l),
(135,758,l)
);
}
);
userData = {
org.robofab.postScriptHintData = {
};
};
vertWidth = 0;
width = 1046;
}
);
unicode = 8211;
},
{
glyphname = emdash;
layers = (
{
layerId = "C1664359-F853-4045-A63D-7A2F9FE31172";
shapes = (
{
closed = 1;
nodes = (
(134,844,l),
(1100,844,l),
(1100,704,l),
(134,704,l)
);
}
);
userData = {
org.robofab.postScriptHintData = {
};
};
vertWidth = 0;
width = 1235;
}
);
unicode = 8212;
},
{
glyphname = underscore;
layers = (
{
layerId = "C1664359-F853-4045-A63D-7A2F9FE31172";
shapes = (
{
closed = 1;
nodes = (
(121,149,l),
(1035,149,l),
(1035,-1,l),
(121,-1,l)
);
}
);
userData = {
org.robofab.postScriptHintData = {
};
};
vertWidth = 0;
width = 1156;
}
);
unicode = 95;
},
{
glyphname = parenleft;
layers = (
{
layerId = "C1664359-F853-4045-A63D-7A2F9FE31172";
shapes = (
{
closed = 1;
nodes = (
(107,729,o),
(137,915,o),
(186,1069,o),
(248,1193,o),
(281,1241,q),
(358,1354,o),
(456,1423,q),
(541,1326,l),
(469,1262,o),
(413,1162,q),
(389,1119,o),
(343,1010,o),
(308,874,o),
(286,712,o),
(286,617,q),
(286,522,o),
(308,360,o),
(343,225,o),
(389,115,o),
(413,73,q),
(469,-26,o),
(541,-90,q),
(456,-186,l),
(358,-117,o),
(281,-4,q),
(248,44,o),
(186,168,o),
(137,322,o),
(107,509,o),
(107,619,q)
);
}
);
userData = {
org.robofab.postScriptHintData = {
};
};
vertWidth = 0;
width = 598;
}
);
unicode = 40;
},
{
glyphname = parenright;
layers = (
{
layerId = "C1664359-F853-4045-A63D-7A2F9FE31172";
shapes = (
{
closed = 1;
nodes = (
(489,509,o),
(459,322,o),
(410,168,o),
(348,44,o),
(315,-4,q),
(238,-117,o),
(141,-186,q),
(55,-90,l),
(127,-26,o),
(183,73,q),
(207,115,o),
(253,225,o),
(289,360,o),
(311,522,o),
(311,617,q),
(311,712,o),
(289,874,o),
(253,1010,o),
(207,1119,o),
(183,1162,q),
(127,1262,o),
(55,1326,q),
(141,1423,l),
(238,1354,o),
(315,1241,q),
(348,1193,o),
(410,1069,o),
(459,915,o),
(489,729,o),
(489,619,q)
);
}
);
userData = {
org.robofab.postScriptHintData = {
};
};
vertWidth = 0;
width = 596;
}
);
unicode = 41;
},
{
glyphname = braceleft;
layers = (
{
layerId = "C1664359-F853-4045-A63D-7A2F9FE31172";
shapes = (
{
closed = 1;
nodes = (
(199,752,l),
(199,891,o),
(213,1096,o),
(244,1242,o),
(294,1336,o),
(367,1390,o),
(464,1411,o),
(526,1412,q),
(526,1322,l),
(489,1322,o),
(438,1304,o),
(405,1255,o),
(387,1169,o),
(378,1033,o),
(377,839,o),
(377,708,q),
(211,605,l),
(377,497,l),
(377,366,o),
(378,173,o),
(387,37,o),
(405,-49,o),
(438,-98,o),
(489,-116,o),
(526,-116,q),
(526,-206,l),
(464,-205,o),
(367,-184,o),
(294,-130,o),
(244,-36,o),
(213,110,o),
(199,315,o),
(199,454,q),
(74,550,l),
(74,657,l)
);
}
);
userData = {
org.robofab.postScriptHintData = {
};
};
vertWidth = 0;
width = 608;
}
);
unicode = 123;
},
{
glyphname = braceright;
layers = (
{
layerId = "C1664359-F853-4045-A63D-7A2F9FE31172";
shapes = (
{
closed = 1;
nodes = (
(409,454,l),
(409,315,o),
(395,110,o),
(364,-36,o),
(314,-130,o),
(241,-184,o),
(144,-205,o),
(82,-206,q),
(82,-116,l),
(119,-116,o),
(170,-98,o),
(203,-49,o),
(220,37,o),
(229,173,o),
(230,366,o),
(230,497,q),
(397,605,l),
(230,708,l),
(230,839,o),
(229,1033,o),
(220,1169,o),
(203,1255,o),
(170,1304,o),
(119,1322,o),
(82,1322,q),
(82,1412,l),
(144,1411,o),
(241,1390,o),
(314,1336,o),
(364,1242,o),
(395,1096,o),
(409,891,o),
(409,752,q),
(535,657,l),
(535,550,l)
);
}
);
userData = {
org.robofab.postScriptHintData = {
};
};
vertWidth = 0;
width = 608;
}
);
unicode = 125;
},
{
glyphname = bracketleft;
layers = (
{
layerId = "C1664359-F853-4045-A63D-7A2F9FE31172";
shapes = (
{
closed = 1;
nodes = (
(172,1437,l),
(578,1437,l),
(578,1319,l),
(341,1319,l),
(347,966,l),
(347,337,l),
(341,-102,l),
(578,-102,l),
(578,-218,l),
(172,-218,l)
);
}
);
userData = {
org.robofab.postScriptHintData = {
};
};
vertWidth = 0;
width = 646;
}
);
unicode = 91;
},
{
glyphname = bracketright;
layers = (
{
layerId = "C1664359-F853-4045-A63D-7A2F9FE31172";
shapes = (
{
closed = 1;
nodes = (
(69,-102,l),
(306,-102,l),
(300,337,l),
(300,966,l),
(306,1319,l),
(69,1319,l),
(69,1437,l),
(475,1437,l),
(475,-218,l),
(69,-218,l)
);
}
);
userData = {
org.robofab.postScriptHintData = {
};
};
vertWidth = 0;
width = 646;
}
);
unicode = 93;
},
{
glyphname = mediumflattenedparenrightornament;
layers = (
{
layerId = "C1664359-F853-4045-A63D-7A2F9FE31172";
shapes = (
{
closed = 1;
nodes = (
(674,-82,l),
(674,81,l),
(136,81,l),
(136,888,l),
(467,889,l),
(467,762,l),
(304,763,l),
(304,210,l),
(674,210,l),
(674,363,l),
(1021,143,l)
);
},
{
closed = 1;
nodes = (
(868,889,l),
(1416,889,l),
(1416,81,l),
(1083,81,l),
(1083,211,l),
(1246,210,l),
(1245,760,l),
(869,762,l),
(869,607,l),
(525,840,l),
(869,1053,l)
);
}
);
userData = {
org.robofab.postScriptHintData = {
};
};
vertWidth = 0;
width = 1551;
}
);
unicode = 10091;
},
{
glyphname = quotesinglbase;
layers = (
{
layerId = "C1664359-F853-4045-A63D-7A2F9FE31172";
shapes = (
{
closed = 1;
nodes = (
(341,185,o),
(344,160,q),
(346,139,o),
(350,82,o),
(350,47,q),
(350,-71,o),
(253,-189,o),
(151,-198,q),
(151,-197,o),
(145,-178,o),
(139,-156,o),
(134,-137,o),
(134,-136,q),
(172,-130,o),
(219,-106,o),
(245,-73,o),
(254,-30,o),
(254,-3,q),
(133,-3,l),
(133,195,l),
(338,205,l)
);
}
);
userData = {
org.robofab.postScriptHintData = {
};
};
vertWidth = 0;
width = 481;
}
);
unicode = 8218;
},
{
glyphname = quotedblbase;
layers = (
{
layerId = "C1664359-F853-4045-A63D-7A2F9FE31172";
shapes = (
{
closed = 1;
nodes = (
(633,185,o),
(636,160,q),
(638,139,o),
(641,83,o),
(641,50,q),
(641,-63,o),
(548,-189,o),
(443,-198,q),
(443,-197,o),
(437,-178,o),
(431,-156,o),
(425,-137,o),
(425,-136,q),
(464,-130,o),
(511,-106,o),
(537,-72,o),
(545,-29,o),
(545,-3,q),
(426,-3,l),
(426,195,l),
(631,205,l)
);
},
{
closed = 1;
nodes = (
(341,185,o),
(344,160,q),
(346,139,o),
(350,83,o),
(350,50,q),
(350,-63,o),
(256,-189,o),
(151,-198,q),
(151,-197,o),
(145,-178,o),
(139,-156,o),
(133,-137,o),
(133,-136,q),
(172,-130,o),
(219,-106,o),
(244,-72,o),
(253,-29,o),
(253,-3,q),
(133,-3,l),
(133,195,l),
(338,205,l)
);
}
);
userData = {
org.robofab.postScriptHintData = {
};
};
vertWidth = 0;
width = 772;
}
);
unicode = 8222;
},
{
glyphname = quotedblleft;
layers = (
{
layerId = "C1664359-F853-4045-A63D-7A2F9FE31172";
shapes = (
{
closed = 1;
nodes = (
(484,1113,l),
(481,1138,o),
(478,1167,q),
(476,1191,o),
(473,1254,o),
(473,1286,q),
(473,1394,o),
(575,1527,o),
(691,1562,q),
(717,1481,l),
(682,1476,o),
(631,1446,o),
(598,1406,o),
(581,1358,o),
(581,1334,q),
(712,1334,l),
(712,1129,l)
);
},
{
closed = 1;
nodes = (
(133,1113,l),
(130,1138,o),
(127,1167,q),
(125,1191,o),
(121,1254,o),
(121,1286,q),
(121,1394,o),
(222,1527,o),
(338,1562,q),
(366,1481,l),
(331,1476,o),
(278,1446,o),
(244,1406,o),
(227,1358,o),
(227,1334,q),
(361,1334,l),
(361,1129,l)
);
}
);
userData = {
org.robofab.postScriptHintData = {
};
};
vertWidth = 0;
width = 824;
}
);
unicode = 8220;
},
{
glyphname = quotedblright;
layers = (
{
layerId = "C1664359-F853-4045-A63D-7A2F9FE31172";
shapes = (
{
closed = 1;
nodes = (
(698,1557,l),
(700,1531,o),
(703,1503,q),
(705,1479,o),
(709,1418,o),
(709,1386,q),
(709,1277,o),
(608,1144,o),
(492,1109,q),
(465,1190,l),
(500,1195,o),
(552,1224,o),
(586,1264,o),
(603,1313,o),
(603,1337,q),
(470,1337,l),
(470,1542,l)
);
},
{
closed = 1;
nodes = (
(345,1557,l),
(347,1531,o),
(350,1503,q),
(352,1479,o),
(355,1418,o),
(355,1386,q),
(355,1277,o),
(254,1144,o),
(138,1109,q),
(111,1190,l),
(146,1195,o),
(197,1224,o),
(231,1265,o),
(247,1313,o),
(247,1337,q),
(116,1337,l),
(116,1542,l)
);
}
);
userData = {
org.robofab.postScriptHintData = {
};
};
vertWidth = 0;
width = 792;
}
);
unicode = 8221;
},
{
glyphname = quoteleft;
layers = (
{
layerId = "C1664359-F853-4045-A63D-7A2F9FE31172";
shapes = (
{
closed = 1;
nodes = (
(131,1118,l),
(128,1144,o),
(125,1172,q),
(123,1196,o),
(119,1258,o),
(119,1290,q),
(119,1398,o),
(220,1531,o),
(336,1566,q),
(364,1486,l),
(329,1481,o),
(276,1452,o),
(242,1411,o),
(225,1363,o),
(225,1339,q),
(359,1339,l),
(359,1134,l)
);
}
);
userData = {
org.robofab.postScriptHintData = {
};
};
vertWidth = 0;
width = 471;
}
);
unicode = 8216;
},
{
glyphname = quoteright;
layers = (
{
layerId = "C1664359-F853-4045-A63D-7A2F9FE31172";
shapes = (
{
closed = 1;
nodes = (
(345,1553,l),
(348,1527,o),
(351,1499,q),
(353,1475,o),
(357,1413,o),
(357,1381,q),
(357,1272,o),
(256,1139,o),
(140,1104,q),
(112,1185,l),
(147,1190,o),
(199,1219,o),
(233,1260,o),
(250,1309,o),
(250,1333,q),
(117,1333,l),
(117,1537,l)
);
}
);
userData = {
org.robofab.postScriptHintData = {
};
};
vertWidth = 0;
width = 441;
}
);
unicode = 8217;
},
{
glyphname = guillemetleft;
layers = (
{
layerId = "C1664359-F853-4045-A63D-7A2F9FE31172";
shapes = (
{
closed = 1;
nodes = (
(529,76,l),
(58,552,l),
(529,1026,l),
(605,914,l),
(243,552,l),
(603,189,l)
);
},
{
closed = 1;
nodes = (
(1039,900,l),
(666,552,l),
(1040,205,l),
(966,93,l),
(478,552,l),
(964,1011,l)
);
}
);
userData = {
org.robofab.postScriptHintData = {
};
};
vertWidth = 0;
width = 1150;
}
);
unicode = 171;
},
{
glyphname = guillemetright;
layers = (
{
layerId = "C1664359-F853-4045-A63D-7A2F9FE31172";
shapes = (
{
closed = 1;
nodes = (
(620,1026,l),
(1092,552,l),
(620,76,l),
(546,189,l),
(907,552,l),
(545,914,l)
);
},
{
closed = 1;
nodes = (
(110,205,l),
(483,552,l),
(111,900,l),
(186,1011,l),
(673,552,l),
(185,93,l)
);
}
);
userData = {
org.robofab.postScriptHintData = {
};
};
vertWidth = 0;
width = 1150;
}
);
unicode = 187;
},
{
glyphname = guilsinglleft;
layers = (
{
layerId = "C1664359-F853-4045-A63D-7A2F9FE31172";
shapes = (
{
closed = 1;
nodes = (
(529,76,l),
(57,552,l),
(529,1026,l),
(604,914,l),
(242,552,l),
(603,189,l)
);
}
);
userData = {
org.robofab.postScriptHintData = {
};
};
vertWidth = 0;
width = 709;
}
);
unicode = 8249;
},
{
glyphname = guilsinglright;
layers = (
{
layerId = "C1664359-F853-4045-A63D-7A2F9FE31172";
shapes = (
{
closed = 1;
nodes = (
(181,1026,l),
(652,552,l),
(181,76,l),
(106,189,l),
(467,552,l),
(105,914,l)
);
}
);
userData = {
org.robofab.postScriptHintData = {
};
};
vertWidth = 0;
width = 710;
}
);
unicode = 8250;
},
{
glyphname = quotedbl;
layers = (
{
layerId = "C1664359-F853-4045-A63D-7A2F9FE31172";
shapes = (
{
closed = 1;
nodes = (
(273,1362,o),
(258,1211,o),
(249,1148,q),
(238,1075,o),
(225,1007,q),
(152,1007,l),
(143,1061,o),
(137,1128,q),
(131,1185,o),
(122,1342,o),
(120,1436,q),
(273,1436,l)
);
},
{
closed = 1;
nodes = (
(497,1362,o),
(479,1211,o),
(468,1148,q),
(455,1075,o),
(439,1007,q),
(369,1007,l),
(364,1027,o),
(356,1116,o),
(350,1233,o),
(347,1368,o),
(347,1436,q),
(497,1436,l)
);
}
);
userData = {
org.robofab.postScriptHintData = {
};
};
vertWidth = 0;
width = 606;
}
);
unicode = 34;
},
{
glyphname = quotesingle;
layers = (
{
layerId = "C1664359-F853-4045-A63D-7A2F9FE31172";
shapes = (
{
closed = 1;
nodes = (
(284,1371,o),
(263,1222,o),
(250,1157,q),
(235,1081,o),
(216,1007,q),
(141,1007,l),
(138,1093,o),
(135,1173,q),
(134,1207,o),
(132,1280,o),
(130,1349,o),
(129,1412,o),
(129,1436,q),
(284,1436,l)
);
}
);
userData = {
org.robofab.postScriptHintData = {
};
};
vertWidth = 0;
width = 389;
}
);
unicode = 39;
},
{
glyphname = florin;
layers = (
{
layerId = "C1664359-F853-4045-A63D-7A2F9FE31172";
shapes = (
{
closed = 1;
nodes = (
(270,886,l),
(93,886,l),
(112,991,l),
(289,991,l),
(313,1125,o),
(378,1305,o),
(469,1413,o),
(588,1459,o),
(666,1459,q),
(709,1459,o),
(775,1447,o),
(798,1439,q),
(824,1430,o),
(845,1419,q),
(839,1296,l),
(817,1303,o),
(791,1309,q),
(769,1314,o),
(715,1322,o),
(686,1322,q),
(639,1322,o),
(575,1303,o),
(529,1252,o),
(498,1162,o),
(485,1092,q),
(468,991,l),
(744,991,l),
(725,886,l),
(449,886,l),
(290,0,l),
(110,0,l)
);
}
);
userData = {
org.robofab.postScriptHintData = {
};
};
vertWidth = 0;
width = 771;
}
);
unicode = 402;
},
{
glyphname = blackSunWithRays;
layers = (
{
layerId = "C1664359-F853-4045-A63D-7A2F9FE31172";
shapes = (
{
closed = 1;
nodes = (
(1156,189,l),
(808,350,l),
(679,-10,l),
(551,348,l),
(205,182,l),
(368,528,l),
(5,655,l),
(366,783,l),
(200,1123,l),
(549,961,l),
(677,1323,l),
(806,963,l),
(1150,1130,l),
(988,783,l),
(1351,657,l),
(988,529,l)
);
},
{
closed = 1;
nodes = (
(391,565,o),
(449,463,o),
(539,390,o),
(653,354,o),
(716,361,q),
(780,367,o),
(886,427,o),
(958,517,o),
(991,630,o),
(984,690,q),
(978,754,o),
(918,858,o),
(827,928,o),
(713,962,o),
(652,955,q),
(587,948,o),
(483,889,o),
(411,799,o),
(378,686,o),
(384,625,q)
);
}
);
userData = {
org.robofab.postScriptHintData = {
};
};
vertWidth = 0;
width = 1355;
}
);
unicode = 9728;
},
{
glyphname = at;
layers = (
{
layerId = "C1664359-F853-4045-A63D-7A2F9FE31172";
shapes = (
{
closed = 1;
nodes = (
(1032,896,o),
(995,903,o),
(943,911,o),
(886,918,o),
(864,917,q),
(794,914,o),
(671,851,o),
(577,751,o),
(520,624,o),
(517,557,q),
(509,425,o),
(607,299,o),
(709,299,q),
(777,299,o),
(880,350,o),
(955,448,o),
(1001,591,o),
(1012,681,q),
(1035,896,l)
);
},
{
closed = 1;
nodes = (
(1511,577,o),
(1469,418,o),
(1400,306,o),
(1313,235,o),
(1223,197,o),
(1140,183,o),
(1109,183,q),
(1071,183,o),
(1028,208,o),
(1007,251,o),
(1004,311,o),
(1007,345,q),
(1008,348,o),
(1014,382,o),
(1017,401,q),
(1025,449,l),
(1016,450,l),
(998,375,o),
(957,315,q),
(939,290,o),
(890,240,o),
(825,203,o),
(742,180,o),
(691,180,q),
(619,180,o),
(506,229,o),
(426,322,o),
(384,452,o),
(384,533,q),
(384,598,o),
(422,725,o),
(492,840,o),
(591,937,o),
(712,1003,o),
(852,1032,o),
(929,1022,q),
(953,1019,o),
(1016,1010,o),
(1073,1001,o),
(1113,994,o),
(1114,994,q),
(1160,895,l),
(1105,287,l),
(1128,287,o),
(1187,297,o),
(1248,327,o),
(1306,383,o),
(1351,472,o),
(1378,599,o),
(1378,688,q),
(1378,818,o),
(1299,1010,o),
(1155,1136,o),
(952,1198,o),
(827,1198,q),
(691,1198,o),
(476,1096,o),
(324,924,o),
(238,697,o),
(232,572,q),
(225,444,o),
(296,235,o),
(445,86,o),
(670,3,o),
(817,3,q),
(930,3,o),
(1090,45,o),
(1141,73,q),
(1201,103,o),
(1240,141,q),
(1246,136,o),
(1264,114,o),
(1285,90,o),
(1303,68,o),
(1309,62,q),
(1269,12,o),
(1199,-26,q),
(1169,-42,o),
(1092,-75,o),
(995,-100,o),
(877,-115,o),
(807,-115,q),
(646,-115,o),
(378,-21,o),
(188,157,o),
(88,410,o),
(94,572,q),
(100,731,o),
(217,1005,o),
(412,1204,o),
(672,1317,o),
(821,1317,q),
(968,1317,o),
(1221,1235,o),
(1406,1077,o),
(1511,839,o),
(1511,685,q)
);
}
);
userData = {
org.robofab.postScriptHintData = {
};
};
vertWidth = 0;
width = 1603;
}
);
unicode = 64;
},
{
glyphname = ampersand;
layers = (
{
layerId = "C1664359-F853-4045-A63D-7A2F9FE31172";
shapes = (
{
closed = 1;
nodes = (
(1112,164,l),
(1034,69,o),
(784,-24,o),
(600,-24,q),
(457,-24,o),
(263,37,o),
(145,141,o),
(94,279,o),
(94,353,q),
(94,418,o),
(137,544,o),
(219,654,o),
(347,753,o),
(422,790,q),
(378,830,o),
(293,913,o),
(236,1003,o),
(203,1104,o),
(203,1163,q),
(203,1235,o),
(250,1339,o),
(346,1421,o),
(491,1464,o),
(590,1464,q),
(689,1464,o),
(828,1419,o),
(915,1339,o),
(955,1241,o),
(955,1176,q),
(955,1108,o),
(911,992,o),
(830,893,o),
(717,810,o),
(643,770,q),
(1080,371,l),
(1100,419,o),
(1124,551,o),
(1138,684,o),
(1146,830,o),
(1149,912,q),
(1295,923,l),
(1295,724,o),
(1250,406,o),
(1193,287,q),
(1418,85,l),
(1318,-20,l)
);
},
{
closed = 1;
nodes = (
(754,123,o),
(946,194,o),
(1003,259,q),
(514,708,l),
(390,640,o),
(269,480,o),
(269,374,q),
(269,322,o),
(298,232,o),
(373,164,o),
(503,123,o),
(603,123,q)
);
},
{
closed = 1;
nodes = (
(367,1110,o),
(399,1030,o),
(452,956,o),
(518,882,o),
(551,853,q),
(596,880,o),
(686,943,o),
(758,1012,o),
(803,1098,o),
(803,1153,q),
(803,1199,o),
(781,1268,o),
(728,1315,o),
(643,1338,o),
(580,1338,q),
(522,1338,o),
(441,1312,o),
(390,1262,o),
(367,1194,o),
(367,1149,q)
);
}
);
userData = {
org.robofab.postScriptHintData = {
};
};
vertWidth = 0;
width = 1464;
}
);
unicode = 38;
},
{
glyphname = paragraph;
layers = (
{
layerId = "C1664359-F853-4045-A63D-7A2F9FE31172";
shapes = (
{
closed = 1;
nodes = (
(354,875,o),
(216,898,o),
(119,961,o),
(67,1068,o),
(67,1148,q),
(68,1248,o),
(141,1364,o),
(278,1422,o),
(476,1437,o),
(603,1437,q),
(1101,1437,l),
(1126,1298,l),
(901,1298,l),
(901,-3,l),
(733,-3,l),
(733,1298,l),
(608,1298,l),
(608,-3,l),
(440,-3,l),
(440,878,l)
);
}
);
userData = {
org.robofab.postScriptHintData = {
};
};
vertWidth = 0;
width = 1182;
}
);
unicode = 182;
},
{
glyphname = section;
layers = (
{
layerId = "C1664359-F853-4045-A63D-7A2F9FE31172";
shapes = (
{
closed = 1;
nodes = (
(124,1174,o),
(190,1279,o),
(294,1338,o),
(423,1360,o),
(487,1360,q),
(552,1360,o),
(657,1342,o),
(695,1331,q),
(739,1318,o),
(774,1302,q),
(774,1299,o),
(781,1257,o),
(789,1208,o),
(796,1166,o),
(796,1163,q),
(779,1171,o),
(724,1192,o),
(646,1211,o),
(546,1223,o),
(486,1223,q),
(443,1222,o),
(370,1213,o),
(316,1185,o),
(286,1135,o),
(286,1094,q),
(286,1050,o),
(329,993,o),
(405,950,o),
(507,913,o),
(567,889,q),
(636,862,o),
(751,813,o),
(833,753,o),
(878,674,o),
(878,617,q),
(878,575,o),
(850,507,o),
(815,459,o),
(784,432,o),
(781,430,q),
(799,417,o),
(840,378,o),
(873,327,o),
(894,264,o),
(893,227,q),
(893,169,o),
(851,69,o),
(758,-5,o),
(610,-47,o),
(504,-47,q),
(432,-47,o),
(315,-27,o),
(273,-14,q),
(224,0,o),
(184,19,q),
(162,159,l),
(207,139,o),
(262,124,q),
(308,111,o),
(430,90,o),
(499,90,q),
(552,90,o),
(634,105,o),
(690,138,o),
(720,192,o),
(721,232,q),
(722,278,o),
(668,340,o),
(579,386,o),
(464,425,o),
(406,449,q),
(323,483,o),
(217,544,o),
(154,607,o),
(130,676,o),
(130,717,q),
(130,747,o),
(148,798,o),
(176,842,o),
(213,878,o),
(231,892,q),
(215,903,o),
(177,937,o),
(144,985,o),
(122,1049,o),
(123,1091,q)
);
},
{
closed = 1;
nodes = (
(751,632,o),
(725,671,o),
(669,704,o),
(582,739,o),
(521,763,q),
(497,772,o),
(454,789,o),
(406,807,o),
(349,830,o),
(312,846,q),
(304,841,o),
(284,821,o),
(267,795,o),
(255,766,o),
(254,751,q),
(252,723,o),
(266,682,o),
(309,644,o),
(390,603,o),
(455,576,q),
(488,563,o),
(557,536,o),
(622,510,o),
(678,486,o),
(699,476,q),
(714,490,o),
(725,508,q),
(735,524,o),
(751,571,o),
(751,603,q)
);
}
);
userData = {
org.robofab.postScriptHintData = {
};
};
vertWidth = 0;
width = 1003;
}
);
unicode = 167;
},
{
glyphname = copyright;
layers = (
{
layerId = "C1664359-F853-4045-A63D-7A2F9FE31172";
shapes = (
{
closed = 1;
nodes = (
(1402,786,o),
(1365,938,o),
(1295,1076,o),
(1192,1194,o),
(1060,1280,o),
(900,1329,o),
(808,1329,q),
(680,1329,o),
(462,1233,o),
(303,1065,o),
(212,838,o),
(212,708,q),
(212,576,o),
(300,350,o),
(459,184,o),
(677,89,o),
(808,89,q),
(928,89,o),
(1144,178,o),
(1307,340,o),
(1402,568,o),
(1402,708,q)
);
},
{
closed = 1;
nodes = (
(1520,597,o),
(1465,403,o),
(1366,242,o),
(1231,116,o),
(1073,29,o),
(896,-17,o),
(806,-17,q),
(706,-17,o),
(523,33,o),
(364,124,o),
(235,255,o),
(142,416,o),
(92,604,o),
(92,708,q),
(92,811,o),
(143,998,o),
(237,1160,o),
(367,1291,o),
(526,1384,o),
(708,1435,o),
(806,1435,q),
(913,1435,o),
(1102,1379,o),
(1261,1280,o),
(1386,1143,o),
(1474,981,o),
(1520,801,o),
(1520,708,q)
);
},
{
closed = 1;
nodes = (
(1043,311,o),
(1003,290,o),
(941,267,o),
(860,248,o),
(816,248,q),
(708,248,o),
(557,326,o),
(463,455,o),
(421,621,o),
(421,708,q),
(421,807,o),
(471,976,o),
(570,1098,o),
(718,1167,o),
(816,1167,q),
(859,1167,o),
(939,1151,o),
(1003,1130,o),
(1044,1112,o),
(1047,1110,q),
(1053,1013,l),
(1022,1025,o),
(986,1036,q),
(954,1045,o),
(871,1060,o),
(823,1060,q),
(745,1060,o),
(638,1004,o),
(574,908,o),
(546,780,o),
(546,708,q),
(546,631,o),
(573,502,o),
(638,408,o),
(744,355,o),
(823,355,q),
(871,355,o),
(953,373,o),
(1015,395,o),
(1051,415,o),
(1053,417,q),
(1047,313,l)
);
}
);
userData = {
org.robofab.postScriptHintData = {
};
};
vertWidth = 0;
width = 1612;
}
);
unicode = 169;
},
{
glyphname = registered;
layers = (
{
layerId = "C1664359-F853-4045-A63D-7A2F9FE31172";
shapes = (
{
closed = 1;
nodes = (
(589,1019,l),
(626,1019,o),
(675,1028,o),
(703,1049,o),
(714,1082,o),
(714,1106,q),
(714,1128,o),
(704,1159,o),
(673,1177,o),
(615,1185,o),
(567,1185,q),
(539,1185,l),
(539,1019,l)
);
},
{
closed = 1;
nodes = (
(577,947,l),
(537,947,l),
(537,720,l),
(449,720,l),
(449,1257,l),
(569,1257,l),
(639,1257,o),
(729,1238,o),
(781,1200,o),
(801,1143,o),
(801,1106,q),
(801,1071,o),
(786,1020,o),
(752,985,o),
(698,962,o),
(659,955,q),
(671,938,o),
(683,919,q),
(694,902,o),
(721,860,o),
(735,838,q),
(811,720,l),
(715,720,l)
);
},
{
closed = 1;
nodes = (
(110,1085,o),
(188,1267,o),
(323,1403,o),
(506,1481,o),
(610,1481,q),
(714,1481,o),
(896,1403,o),
(1031,1267,o),
(1108,1085,o),
(1108,981,q),
(1108,877,o),
(1031,695,o),
(896,560,o),
(714,482,o),
(610,482,q),
(506,482,o),
(323,560,o),
(188,695,o),
(110,877,o),
(110,981,q)
);
},
{
closed = 1;
nodes = (
(197,891,o),
(261,739,o),
(373,628,o),
(524,565,o),
(610,565,q),
(696,565,o),
(847,628,o),
(959,739,o),
(1023,891,o),
(1023,980,q),
(1023,1068,o),
(959,1221,o),
(847,1333,o),
(696,1397,o),
(610,1397,q),
(524,1397,o),
(373,1333,o),
(261,1221,o),
(197,1068,o),
(197,980,q)
);
}
);
userData = {
org.robofab.postScriptHintData = {
};
};
vertWidth = 0;
width = 1218;
}
);
unicode = 174;
},
{
glyphname = trademark;
layers = (
{
layerId = "C1664359-F853-4045-A63D-7A2F9FE31172";
shapes = (
{
closed = 1;
nodes = (
(345,897,l),
(248,897,l),
(248,1330,l),
(116,1330,l),
(116,1405,l),
(478,1405,l),
(478,1330,l),
(345,1330,l)
);
},
{
closed = 1;
nodes = (
(928,1172,l),
(940,1368,l),
(900,1186,l),
(881,1115,o),
(844,977,o),
(824,905,q),
(728,905,l),
(695,1019,o),
(639,1247,o),
(614,1363,q),
(626,1172,l),
(626,1127,l),
(626,897,l),
(537,897,l),
(537,1405,l),
(677,1405,l),
(692,1343,o),
(725,1222,o),
(739,1159,q),
(777,986,l),
(814,1184,l),
(817,1193,o),
(823,1213,o),
(826,1223,q),
(877,1405,l),
(1017,1405,l),
(1017,897,l),
(928,897,l)
);
}
);
userData = {
org.robofab.postScriptHintData = {
};
};
vertWidth = 0;
width = 1169;
}
);
unicode = 8482;
},
{
glyphname = degree;
layers = (
{
layerId = "C1664359-F853-4045-A63D-7A2F9FE31172";
shapes = (
{
closed = 1;
nodes = (
(456,1036,o),
(393,1103,o),
(337,1103,q),
(283,1103,o),
(218,1037,o),
(218,985,q),
(218,934,o),
(280,869,o),
(337,869,q),
(391,869,o),
(456,933,o),
(456,985,q)
);
},
{
closed = 1;
nodes = (
(570,936,o),
(535,852,o),
(474,790,o),
(388,755,o),
(337,755,q),
(287,755,o),
(202,790,o),
(140,851,o),
(106,935,o),
(106,985,q),
(106,1034,o),
(140,1118,o),
(202,1179,o),
(287,1213,o),
(337,1213,q),
(388,1213,o),
(474,1178,o),
(535,1117,o),
(570,1034,o),
(570,985,q)
);
}
);
userData = {
org.robofab.postScriptHintData = {
};
};
vertWidth = 0;
width = 675;
}
);
unicode = 176;
},
{
glyphname = bar;
layers = (
{
layerId = "C1664359-F853-4045-A63D-7A2F9FE31172";
shapes = (
{
closed = 1;
nodes = (
(173,1473,l),
(361,1473,l),
(361,-131,l),
(173,-131,l)
);
}
);
userData = {
org.robofab.postScriptHintData = {
};
};
vertWidth = 0;
width = 533;
}
);
unicode = 124;
},
{
glyphname = brokenbar;
layers = (
{
layerId = "C1664359-F853-4045-A63D-7A2F9FE31172";
shapes = (
{
closed = 1;
nodes = (
(177,576,l),
(357,576,l),
(357,-138,l),
(177,-138,l)
);
},
{
closed = 1;
nodes = (
(177,1473,l),
(357,1473,l),
(357,815,l),
(177,815,l)
);
}
);
userData = {
org.robofab.postScriptHintData = {
};
};
vertWidth = 0;
width = 534;
}
);
unicode = 166;
},
{
glyphname = dagger;
layers = (
{
layerId = "C1664359-F853-4045-A63D-7A2F9FE31172";
shapes = (
{
closed = 1;
nodes = (
(790,883,l),
(507,883,l),
(507,0,l),
(346,0,l),
(346,883,l),
(63,883,l),
(63,1008,l),
(346,1008,l),
(346,1334,l),
(507,1334,l),
(507,1008,l),
(790,1008,l)
);
}
);
userData = {
org.robofab.postScriptHintData = {
};
};
vertWidth = 0;
width = 853;
}
);
unicode = 8224;
},
{
glyphname = daggerdbl;
layers = (
{
layerId = "C1664359-F853-4045-A63D-7A2F9FE31172";
shapes = (
{
closed = 1;
nodes = (
(117,522,l),
(332,522,l),
(332,867,l),
(117,867,l),
(117,979,l),
(332,979,l),
(332,1252,l),
(497,1252,l),
(497,979,l),
(714,979,l),
(714,867,l),
(497,867,l),
(497,522,l),
(714,522,l),
(714,410,l),
(497,410,l),
(497,129,l),
(332,129,l),
(332,410,l),
(117,410,l)
);
}
);
userData = {
org.robofab.postScriptHintData = {
};
};
vertWidth = 0;
width = 831;
}
);
unicode = 8225;
},
{
glyphname = cent;
layers = (
{
layerId = "C1664359-F853-4045-A63D-7A2F9FE31172";
shapes = (
{
closed = 1;
nodes = (
(500,-129,l),
(528,1161,l),
(588,1161,l),
(562,-129,l)
);
},
{
closed = 1;
nodes = (
(97,654,o),
(178,858,o),
(309,982,o),
(472,1036,o),
(555,1035,q),
(625,1035,o),
(749,998,o),
(841,925,o),
(890,816,o),
(885,744,q),
(733,750,l),
(734,827,o),
(641,894,o),
(556,893,q),
(496,892,o),
(397,853,o),
(325,763,o),
(286,615,o),
(286,507,q),
(286,398,o),
(323,246,o),
(395,152,o),
(500,109,o),
(567,109,q),
(626,109,o),
(732,131,o),
(813,157,o),
(860,179,o),
(860,179,q),
(834,42,l),
(822,34,o),
(772,11,o),
(699,-12,o),
(605,-28,o),
(551,-28,q),
(496,-28,o),
(386,-5,o),
(286,46,o),
(198,127,o),
(134,246,o),
(97,403,o),
(97,504,q)
);
}
);
userData = {
org.robofab.postScriptHintData = {
};
};
vertWidth = 0;
width = 981;
}
);
unicode = 162;
},
{
glyphname = currency;
layers = (
{
layerId = "C1664359-F853-4045-A63D-7A2F9FE31172";
shapes = (
{
closed = 1;
nodes = (
(672,1354,o),
(796,1315,o),
(844,1281,q),
(970,1409,l),
(1040,1337,l),
(916,1213,l),
(962,1157,o),
(1005,1019,o),
(1005,945,q),
(1005,872,o),
(964,737,o),
(919,682,q),
(1040,560,l),
(973,490,l),
(850,613,l),
(802,577,o),
(674,536,o),
(591,536,q),
(508,536,o),
(380,577,o),
(331,612,q),
(211,490,l),
(145,560,l),
(262,679,l),
(217,735,o),
(175,872,o),
(175,945,q),
(175,1020,o),
(218,1159,o),
(265,1215,q),
(145,1337,l),
(215,1409,l),
(338,1283,l),
(386,1316,o),
(510,1354,o),
(591,1354,q)
);
},
{
closed = 1;
nodes = (
(661,677,o),
(759,722,o),
(821,797,o),
(849,893,o),
(849,945,q),
(849,996,o),
(821,1092,o),
(760,1166,o),
(661,1211,o),
(591,1211,q),
(520,1211,o),
(421,1166,o),
(360,1092,o),
(332,996,o),
(332,945,q),
(332,893,o),
(360,797,o),
(422,722,o),
(520,677,o),
(591,677,q)
);
}
);
userData = {
org.robofab.postScriptHintData = {
};
};
vertWidth = 0;
width = 1184;
}
);
unicode = 164;
},
{
glyphname = dollar;
layers = (
{
layerId = "C1664359-F853-4045-A63D-7A2F9FE31172";
shapes = (
{
closed = 1;
nodes = (
(466,32,o),
(442,33,o),
(436,33,q),
(367,36,o),
(255,59,o),
(216,72,q),
(170,87,o),
(135,104,q),
(110,254,l),
(154,234,o),
(207,217,q),
(252,203,o),
(370,178,o),
(438,175,q),
(443,175,o),
(464,174,o),
(470,174,q),
(458,651,l),
(445,655,o),
(421,663,o),
(409,667,q),
(329,694,o),
(211,756,o),
(132,838,o),
(93,948,o),
(93,1022,q),
(93,1096,o),
(144,1212,o),
(236,1296,o),
(365,1345,o),
(442,1353,q),
(437,1593,l),
(544,1593,l),
(549,1356,l),
(613,1354,o),
(723,1337,o),
(764,1328,q),
(812,1317,o),
(851,1305,q),
(871,1154,l),
(828,1169,o),
(777,1181,q),
(733,1192,o),
(618,1210,o),
(552,1213,q),
(563,787,l),
(653,758,o),
(791,702,o),
(883,619,o),
(930,495,o),
(930,398,q),
(930,323,o),
(891,199,o),
(807,105,o),
(674,45,o),
(580,35,q),
(586,-201,l),
(478,-201,l),
(473,32,l)
);
},
{
closed = 1;
nodes = (
(754,429,o),
(736,499,o),
(693,553,o),
(620,594,o),
(566,613,q),
(577,184,l),
(618,191,o),
(684,220,o),
(730,268,o),
(754,335,o),
(754,381,q)
);
},
{
closed = 1;
nodes = (
(257,979,o),
(277,924,o),
(323,879,o),
(398,841,o),
(454,822,q),
(446,1206,l),
(405,1200,o),
(336,1171,o),
(285,1125,o),
(257,1059,o),
(257,1016,q)
);
}
);
userData = {
org.robofab.postScriptHintData = {
};
};
vertWidth = 0;
width = 1014;
}
);
unicode = 36;
},
{
glyphname = euro;
layers = (
{
layerId = "C1664359-F853-4045-A63D-7A2F9FE31172";
shapes = (
{
closed = 1;
nodes = (
(204,890,l),
(223,1041,o),
(325,1250,o),
(478,1379,o),
(673,1436,o),
(786,1436,q),
(867,1436,o),
(1006,1417,o),
(1057,1406,q),
(1117,1393,o),
(1165,1377,q),
(1180,1226,l),
(1130,1243,o),
(1070,1257,q),
(1019,1268,o),
(884,1288,o),
(807,1288,q),
(725,1288,o),
(589,1246,o),
(486,1151,o),
(417,1000,o),
(403,890,q),
(699,890,l),
(699,762,l),
(391,762,l),
(391,718,l),
(391,700,o),
(391,666,o),
(392,649,q),
(701,649,l),
(701,521,l),
(406,521,l),
(419,413,o),
(481,261,o),
(576,165,o),
(706,121,o),
(788,121,q),
(870,121,o),
(1012,142,o),
(1066,156,q),
(1128,171,o),
(1180,191,q),
(1164,39,l),
(1115,20,o),
(1053,5,q),
(1000,-8,o),
(854,-28,o),
(766,-28,q),
(661,-28,o),
(474,24,o),
(327,151,o),
(227,362,o),
(207,521,q),
(81,521,l),
(81,649,l),
(194,649,l),
(193,666,o),
(192,699,o),
(192,716,q),
(192,722,o),
(192,756,o),
(193,762,q),
(80,762,l),
(80,890,l)
);
}
);
userData = {
org.robofab.postScriptHintData = {
};
};
vertWidth = 0;
width = 1279;
}
);
unicode = 8364;
},
{
glyphname = sterling;
layers = (
{
layerId = "C1664359-F853-4045-A63D-7A2F9FE31172";
shapes = (
{
closed = 1;
nodes = (
(89,-3,l),
(89,140,l),
(185,140,l),
(210,168,o),
(229,238,q),
(237,268,o),
(253,351,o),
(266,463,o),
(274,607,o),
(274,697,q),
(108,697,l),
(108,814,l),
(274,814,l),
(274,1059,l),
(274,1149,o),
(315,1296,o),
(400,1399,o),
(532,1454,o),
(623,1453,q),
(676,1452,o),
(765,1435,o),
(798,1424,q),
(837,1412,o),
(868,1396,q),
(868,1257,l),
(837,1269,o),
(803,1280,q),
(774,1289,o),
(696,1303,o),
(654,1304,q),
(573,1304,o),
(492,1240,o),
(460,1115,o),
(460,932,o),
(460,814,q),
(821,814,l),
(821,697,l),
(460,697,l),
(460,602,o),
(450,453,o),
(434,339,o),
(413,257,o),
(403,229,q),
(378,162,o),
(347,141,q),
(885,141,l),
(874,-3,l)
);
}
);
userData = {
org.robofab.postScriptHintData = {
};
};
vertWidth = 0;
width = 994;
}
);
unicode = 163;
},
{
glyphname = yen;
layers = (
{
layerId = "C1664359-F853-4045-A63D-7A2F9FE31172";
shapes = (
{
closed = 1;
nodes = (
(406,550,l),
(402,558,o),
(369,636,o),
(321,753,o),
(261,899,o),
(199,1050,o),
(139,1195,o),
(91,1312,o),
(59,1390,o),
(55,1398,q),
(246,1398,l),
(447,879,l),
(448,873,o),
(460,832,o),
(478,776,o),
(497,713,o),
(515,657,o),
(527,615,o),
(528,609,q),
(529,612,o),
(542,652,o),
(560,710,o),
(581,776,o),
(599,834,o),
(612,875,o),
(613,879,q),
(613,882,o),
(629,928,o),
(656,999,o),
(690,1089,o),
(726,1182,o),
(761,1272,o),
(789,1345,o),
(807,1393,o),
(809,1398,q),
(1001,1398,l),
(997,1390,o),
(965,1312,o),
(916,1195,o),
(856,1050,o),
(794,899,o),
(734,753,o),
(686,636,o),
(653,558,o),
(649,550,q),
(899,550,l),
(899,460,l),
(628,460,l),
(627,455,o),
(626,419,o),
(624,379,o),
(623,343,o),
(623,339,q),
(902,339,l),
(902,254,l),
(618,254,l),
(618,-3,l),
(437,-3,l),
(437,254,l),
(170,254,l),
(170,339,l),
(433,339,l),
(427,460,l),
(170,460,l),
(170,550,l)
);
}
);
userData = {
org.robofab.postScriptHintData = {
};
};
vertWidth = 0;
width = 1061;
}
);
unicode = 165;
},
{
glyphname = plus;
layers = (
{
layerId = "C1664359-F853-4045-A63D-7A2F9FE31172";
shapes = (
{
closed = 1;
nodes = (
(493,153,l),
(355,153,l),
(355,455,l),
(91,455,l),
(91,591,l),
(355,591,l),
(355,895,l),
(493,895,l),
(493,591,l),
(757,591,l),
(757,455,l),
(493,455,l)
);
}
);
userData = {
org.robofab.postScriptHintData = {
};
};
vertWidth = 0;
width = 848;
}
);
unicode = 43;
},
{
glyphname = minus;
layers = (
{
layerId = "C1664359-F853-4045-A63D-7A2F9FE31172";
shapes = (
{
closed = 1;
nodes = (
(159,455,l),
(159,591,l),
(825,591,l),
(825,455,l)
);
}
);
userData = {
org.robofab.postScriptHintData = {
};
};
vertWidth = 0;
width = 984;
}
);
unicode = 8722;
},
{
glyphname = multiply;
layers = (
{
layerId = "C1664359-F853-4045-A63D-7A2F9FE31172";
shapes = (
{
closed = 1;
nodes = (
(731,323,l),
(633,226,l),
(432,427,l),
(231,226,l),
(134,323,l),
(334,524,l),
(134,725,l),
(231,823,l),
(432,622,l),
(633,823,l),
(731,725,l),
(529,524,l)
);
}
);
userData = {
org.robofab.postScriptHintData = {
};
};
vertWidth = 0;
width = 865;
}
);
unicode = 215;
},
{
glyphname = divide;
layers = (
{
layerId = "C1664359-F853-4045-A63D-7A2F9FE31172";
shapes = (
{
closed = 1;
nodes = (
(427,908,l),
(602,908,l),
(602,731,l),
(427,731,l)
);
},
{
closed = 1;
nodes = (
(127,641,l),
(896,641,l),
(896,521,l),
(127,521,l)
);
},
{
closed = 1;
nodes = (
(427,421,l),
(602,421,l),
(602,243,l),
(427,243,l)
);
}
);
userData = {
org.robofab.postScriptHintData = {
};
};
vertWidth = 0;
width = 1022;
}
);
unicode = 247;
},
{
glyphname = equal;
layers = (
{
layerId = "C1664359-F853-4045-A63D-7A2F9FE31172";
shapes = (
{
closed = 1;
nodes = (
(779,615,l),
(779,487,l),
(159,487,l),
(159,615,l)
);
},
{
closed = 1;
nodes = (
(779,534,l),
(779,405,l),
(160,405,l),
(160,534,l)
);
}
);
userData = {
org.robofab.postScriptHintData = {
};
};
vertWidth = 0;
width = 939;
}
);
unicode = 61;
},
{
glyphname = notequal;
layers = (
{
layerId = "C1664359-F853-4045-A63D-7A2F9FE31172";
shapes = (
{
closed = 1;
nodes = (
(390,181,l),
(268,229,l),
(310,334,l),
(106,336,l),
(106,449,l),
(348,449,l),
(387,548,l),
(104,548,l),
(104,663,l),
(425,663,l),
(488,830,l),
(613,788,l),
(563,663,l),
(769,663,l),
(769,548,l),
(526,548,l),
(486,449,l),
(771,449,l),
(771,334,l),
(448,334,l)
);
}
);
userData = {
org.robofab.postScriptHintData = {
};
};
vertWidth = 0;
width = 874;
}
);
unicode = 8800;
},
{
glyphname = greater;
layers = (
{
layerId = "C1664359-F853-4045-A63D-7A2F9FE31172";
shapes = (
{
closed = 1;
nodes = (
(181,138,l),
(132,301,l),
(702,561,l),
(132,823,l),
(181,987,l),
(909,623,l),
(909,506,l)
);
}
);
userData = {
org.robofab.postScriptHintData = {
};
};
vertWidth = 0;
width = 988;
}
);
unicode = 62;
},
{
glyphname = less;
layers = (
{
layerId = "C1664359-F853-4045-A63D-7A2F9FE31172";
shapes = (
{
closed = 1;
nodes = (
(808,987,l),
(857,823,l),
(285,561,l),
(857,301,l),
(808,138,l),
(79,506,l),
(79,623,l)
);
}
);
userData = {
org.robofab.postScriptHintData = {
};
};
vertWidth = 0;
width = 989;
}
);
unicode = 60;
},
{
glyphname = greaterequal;
layers = (
{
layerId = "C1664359-F853-4045-A63D-7A2F9FE31172";
shapes = (
{
closed = 1;
nodes = (
(155,121,l),
(880,121,l),
(880,-6,l),
(155,-6,l)
);
},
{
closed = 1;
nodes = (
(158,446,l),
(169,451,o),
(245,481,o),
(349,522,o),
(466,568,o),
(569,609,o),
(645,639,o),
(656,643,q),
(634,652,o),
(555,683,o),
(460,721,o),
(355,762,o),
(259,799,o),
(180,831,o),
(158,840,q),
(158,1008,l),
(165,1005,o),
(231,976,o),
(329,932,o),
(451,878,o),
(577,822,o),
(699,768,o),
(798,725,o),
(864,695,o),
(872,692,q),
(872,600,l),
(158,280,l)
);
}
);
userData = {
org.robofab.postScriptHintData = {
};
};
vertWidth = 0;
width = 1007;
}
);
unicode = 8805;
},
{
glyphname = lessequal;
layers = (
{
layerId = "C1664359-F853-4045-A63D-7A2F9FE31172";
shapes = (
{
closed = 1;
nodes = (
(127,121,l),
(852,121,l),
(852,-6,l),
(127,-6,l)
);
},
{
closed = 1;
nodes = (
(841,283,o),
(775,313,o),
(677,357,o),
(555,411,o),
(429,468,o),
(307,523,o),
(209,567,o),
(142,597,o),
(135,600,q),
(135,692,l),
(142,695,o),
(209,725,o),
(307,768,o),
(429,822,o),
(555,878,o),
(677,932,o),
(775,976,o),
(841,1005,o),
(849,1008,q),
(849,840,l),
(827,831,o),
(748,800,o),
(653,762,o),
(548,721,o),
(453,683,o),
(374,652,o),
(352,643,q),
(363,639,o),
(439,609,o),
(542,568,o),
(659,522,o),
(763,481,o),
(838,450,o),
(849,446,q),
(849,280,l)
);
}
);
userData = {
org.robofab.postScriptHintData = {
};
};
vertWidth = 0;
width = 1007;
}
);
unicode = 8804;
},
{
glyphname = plusminus;
layers = (
{
layerId = "C1664359-F853-4045-A63D-7A2F9FE31172";
shapes = (
{
closed = 1;
nodes = (
(132,109,l),
(916,109,l),
(916,-5,l),
(132,-5,l)
);
},
{
closed = 1;
nodes = (
(598,403,l),
(453,403,l),
(453,762,l),
(132,762,l),
(132,884,l),
(453,884,l),
(453,1247,l),
(598,1247,l),
(598,884,l),
(916,884,l),
(916,762,l),
(598,762,l)
);
}
);
userData = {
org.robofab.postScriptHintData = {
};
};
vertWidth = 0;
width = 1047;
}
);
unicode = 177;
},
{
glyphname = approxequal;
layers = (
{
layerId = "C1664359-F853-4045-A63D-7A2F9FE31172";
shapes = (
{
closed = 1;
nodes = (
(860,731,o),
(842,691,q),
(834,674,o),
(807,642,o),
(767,616,o),
(712,601,o),
(675,601,q),
(632,601,o),
(537,633,o),
(447,671,o),
(366,703,o),
(336,703,q),
(307,703,o),
(277,678,o),
(270,664,q),
(262,647,o),
(261,626,q),
(152,626,l),
(155,675,o),
(176,715,q),
(185,732,o),
(212,764,o),
(252,790,o),
(305,805,o),
(341,805,q),
(386,805,o),
(480,774,o),
(568,738,o),
(648,707,o),
(679,707,q),
(705,707,o),
(734,725,o),
(747,749,o),
(749,774,o),
(749,782,q),
(860,782,l)
);
},
{
closed = 1;
nodes = (
(860,516,o),
(842,476,q),
(834,459,o),
(807,427,o),
(767,401,o),
(712,386,o),
(675,386,q),
(632,386,o),
(537,418,o),
(447,455,o),
(366,487,o),
(336,487,q),
(307,487,o),
(277,462,o),
(270,448,q),
(262,431,o),
(261,410,q),
(152,410,l),
(155,460,o),
(176,500,q),
(185,517,o),
(212,549,o),
(252,575,o),
(305,590,o),
(341,590,q),
(386,590,o),
(480,559,o),
(568,522,o),
(648,491,o),
(679,491,q),
(705,491,o),
(734,508,o),
(747,532,o),
(749,558,o),
(749,566,q),
(860,566,l)
);
}
);
userData = {
org.robofab.postScriptHintData = {
};
};
vertWidth = 0;
width = 1014;
}
);
unicode = 8776;
},
{
glyphname = asciitilde;
layers = (
{
layerId = "C1664359-F853-4045-A63D-7A2F9FE31172";
shapes = (
{
closed = 1;
nodes = (
(588,611,o),
(603,622,q),
(618,633,o),
(628,679,o),
(629,705,q),
(760,705,l),
(761,646,o),
(734,566,o),
(691,516,o),
(636,492,o),
(609,491,q),
(599,490,o),
(579,491,o),
(568,493,q),
(534,497,o),
(465,529,o),
(401,565,o),
(343,594,o),
(321,595,q),
(306,595,o),
(285,579,o),
(273,552,o),
(268,517,o),
(268,498,q),
(136,498,l),
(135,563,o),
(165,650,o),
(214,701,o),
(278,722,o),
(311,721,q),
(348,719,o),
(418,689,o),
(482,653,o),
(538,621,o),
(562,617,q)
);
}
);
userData = {
org.robofab.postScriptHintData = {
};
};
vertWidth = 0;
width = 893;
}
);
unicode = 126;
},
{
glyphname = logicalnot;
layers = (
{
layerId = "C1664359-F853-4045-A63D-7A2F9FE31172";
shapes = (
{
closed = 1;
nodes = (
(1025,692,l),
(104,692,l),
(104,836,l),
(1205,836,l),
(1205,119,l),
(1025,119,l)
);
}
);
userData = {
org.robofab.postScriptHintData = {
};
};
vertWidth = 0;
width = 1386;
}
);
unicode = 172;
},
{
glyphname = asciicircum;
layers = (
{
layerId = "C1664359-F853-4045-A63D-7A2F9FE31172";
shapes = (
{
closed = 1;
nodes = (
(662,279,l),
(656,293,o),
(623,385,o),
(578,509,o),
(527,649,o),
(483,773,o),
(449,865,o),
(444,880,q),
(440,869,o),
(418,811,o),
(389,728,o),
(354,630,o),
(317,528,o),
(282,429,o),
(253,348,o),
(232,289,o),
(228,279,q),
(52,279,l),
(56,287,o),
(85,356,o),
(129,457,o),
(182,582,o),
(237,711,o),
(290,836,o),
(334,937,o),
(363,1005,o),
(367,1013,q),
(522,1013,l),
(836,279,l)
);
}
);
userData = {
org.robofab.postScriptHintData = {
};
};
vertWidth = 0;
width = 889;
}
);
unicode = 94;
},
{
glyphname = infinity;
layers = (
{
layerId = "C1664359-F853-4045-A63D-7A2F9FE31172";
shapes = (
{
closed = 1;
nodes = (
(896,660,o),
(851,719,o),
(793,787,o),
(725,856,o),
(649,913,o),
(568,949,o),
(526,949,q),
(470,949,o),
(375,912,o),
(305,836,o),
(266,721,o),
(266,644,q),
(266,564,o),
(305,447,o),
(373,370,o),
(467,332,o),
(523,332,q),
(571,332,o),
(656,366,o),
(730,420,o),
(794,488,o),
(848,557,o),
(893,621,o),
(911,643,q)
);
},
{
closed = 1;
nodes = (
(1703,722,o),
(1660,836,o),
(1588,911,o),
(1493,948,o),
(1440,948,q),
(1396,948,o),
(1316,914,o),
(1244,861,o),
(1181,793,o),
(1126,725,o),
(1081,662,o),
(1064,641,q),
(1082,619,o),
(1128,557,o),
(1184,490,o),
(1249,424,o),
(1321,371,o),
(1399,339,o),
(1440,339,q),
(1496,339,o),
(1592,376,o),
(1663,452,o),
(1703,567,o),
(1703,645,q)
);
},
{
closed = 1;
nodes = (
(1842,546,o),
(1783,386,o),
(1679,275,o),
(1537,215,o),
(1453,215,q),
(1370,215,o),
(1247,263,o),
(1144,349,o),
(1047,468,o),
(991,538,q),
(934,466,o),
(831,347,o),
(721,261,o),
(597,213,o),
(520,213,q),
(432,213,o),
(288,273,o),
(185,384,o),
(129,544,o),
(129,644,q),
(129,736,o),
(185,892,o),
(287,1006,o),
(430,1070,o),
(516,1070,q),
(599,1070,o),
(725,1020,o),
(831,933,o),
(930,814,o),
(987,745,q),
(1045,818,o),
(1143,938,o),
(1247,1024,o),
(1369,1072,o),
(1450,1072,q),
(1539,1072,o),
(1684,1009,o),
(1786,895,o),
(1842,738,o),
(1842,645,q)
);
}
);
userData = {
org.robofab.postScriptHintData = {
};
};
vertWidth = 0;
width = 1972;
}
);
unicode = 8734;
},
{
glyphname = integral;
layers = (
{
layerId = "C1664359-F853-4045-A63D-7A2F9FE31172";
shapes = (
{
closed = 1;
nodes = (
(526,111,l),
(526,6,o),
(498,-173,o),
(421,-299,o),
(284,-362,o),
(175,-352,q),
(145,-350,o),
(97,-338,o),
(80,-332,q),
(60,-325,o),
(45,-317,q),
(28,-195,l),
(51,-203,o),
(77,-208,q),
(99,-213,o),
(156,-220,o),
(185,-220,q),
(232,-220,o),
(294,-201,o),
(331,-150,o),
(346,-61,o),
(346,9,q),
(345,886,l),
(168,886,l),
(168,991,l),
(345,991,l),
(348,1106,o),
(377,1286,o),
(454,1408,o),
(588,1464,o),
(696,1454,q),
(725,1452,o),
(774,1441,o),
(791,1435,q),
(811,1428,o),
(826,1419,q),
(842,1296,l),
(819,1303,o),
(793,1309,q),
(771,1314,o),
(715,1322,o),
(686,1322,q),
(641,1322,o),
(579,1303,o),
(541,1252,o),
(525,1162,o),
(525,1092,q),
(525,991,l),
(799,991,l),
(799,886,l),
(526,886,l)
);
}
);
userData = {
org.robofab.postScriptHintData = {
};
};
vertWidth = 0;
width = 882;
}
);
unicode = 8747;
},
{
glyphname = increment;
layers = (
{
layerId = "C1664359-F853-4045-A63D-7A2F9FE31172";
shapes = (
{
closed = 1;
nodes = (
(547,973,l),
(259,99,l),
(829,99,l)
);
},
{
closed = 1;
nodes = (
(460,1130,l),
(632,1130,l),
(1037,-2,l),
(52,-2,l)
);
}
);
userData = {
org.robofab.postScriptHintData = {
};
};
vertWidth = 0;
width = 1090;
}
);
unicode = 8710;
},
{
glyphname = product;
layers = (
{
layerId = "C1664359-F853-4045-A63D-7A2F9FE31172";
shapes = (
{
closed = 1;
nodes = (
(1233,0,l),
(1045,0,l),
(1045,874,l),
(1056,1286,l),
(367,1286,l),
(377,848,l),
(377,0,l),
(190,0,l),
(190,1409,l),
(1233,1409,l)
);
}
);
userData = {
org.robofab.postScriptHintData = {
};
};
vertWidth = 0;
width = 1422;
}
);
unicode = 8719;
},
{
glyphname = summation;
layers = (
{
layerId = "C1664359-F853-4045-A63D-7A2F9FE31172";
shapes = (
{
closed = 1;
nodes = (
(449,338,l),
(319,151,l),
(491,160,l),
(972,160,l),
(972,-3,l),
(59,-3,l),
(497,707,l),
(72,1398,l),
(948,1398,l),
(949,1248,l),
(496,1248,l),
(315,1253,l),
(455,1059,l),
(683,707,l)
);
}
);
userData = {
org.robofab.postScriptHintData = {
};
};
vertWidth = 0;
width = 1062;
}
);
unicode = 8721;
},
{
glyphname = radical;
layers = (
{
layerId = "C1664359-F853-4045-A63D-7A2F9FE31172";
shapes = (
{
closed = 1;
nodes = (
(339,895,l),
(343,880,o),
(364,808,o),
(394,711,o),
(429,596,o),
(466,477,o),
(501,361,o),
(529,264,o),
(550,192,o),
(553,176,q),
(562,206,o),
(603,337,o),
(658,514,o),
(724,723,o),
(792,938,o),
(857,1147,o),
(913,1324,o),
(954,1455,o),
(963,1485,q),
(1125,1435,l),
(1112,1400,o),
(1063,1254,o),
(999,1061,o),
(925,833,o),
(848,599,o),
(774,371,o),
(711,177,o),
(662,31,o),
(649,-4,q),
(458,-4,l),
(180,812,l),
(30,812,l),
(30,895,l)
);
}
);
userData = {
org.robofab.postScriptHintData = {
};
};
vertWidth = 0;
width = 1153;
}
);
unicode = 8730;
},
{
glyphname = micro;
layers = (
{
layerId = "C1664359-F853-4045-A63D-7A2F9FE31172";
shapes = (
{
closed = 1;
nodes = (
(887,-8,l),
(862,132,l),
(827,87,o),
(779,52,q),
(737,22,o),
(615,-28,o),
(534,-28,q),
(489,-28,o),
(419,-5,o),
(368,35,o),
(336,89,o),
(330,120,q),
(326,-300,l),
(171,-300,l),
(171,1019,l),
(354,1019,l),
(354,435,l),
(354,348,o),
(374,226,o),
(420,148,o),
(495,113,o),
(551,113,q),
(614,113,o),
(717,149,o),
(755,172,q),
(799,198,o),
(835,231,q),
(835,1019,l),
(1020,1019,l),
(1020,3,l)
);
}
);
userData = {
org.robofab.postScriptHintData = {
};
};
vertWidth = 0;
width = 1161;
}
);
unicode = 181;
},
{
glyphname = partialdiff;
layers = (
{
layerId = "C1664359-F853-4045-A63D-7A2F9FE31172";
shapes = (
{
closed = 1;
nodes = (
(624,1539,o),
(760,1477,o),
(858,1369,o),
(922,1220,o),
(959,1047,o),
(974,855,o),
(974,757,q),
(974,524,o),
(917,220,o),
(802,42,o),
(629,-29,o),
(514,-29,q),
(461,-29,o),
(358,-9,o),
(264,39,o),
(184,118,o),
(125,237,o),
(92,399,o),
(92,505,q),
(92,621,o),
(143,816,o),
(244,958,o),
(396,1038,o),
(497,1038,q),
(569,1038,o),
(682,992,o),
(722,965,q),
(769,933,o),
(805,893,q),
(802,950,o),
(794,1073,o),
(775,1191,o),
(738,1297,o),
(673,1377,o),
(574,1424,o),
(503,1424,q),
(459,1424,o),
(383,1410,o),
(354,1402,q),
(321,1392,o),
(293,1381,q),
(293,1388,o),
(297,1419,o),
(300,1453,o),
(304,1484,o),
(304,1492,q),
(332,1504,o),
(367,1515,q),
(397,1524,o),
(481,1539,o),
(533,1539,q)
);
},
{
closed = 1;
nodes = (
(571,109,o),
(648,128,o),
(711,180,o),
(759,270,o),
(791,414,o),
(806,616,o),
(806,753,q),
(767,792,o),
(721,824,q),
(682,851,o),
(579,895,o),
(522,896,q),
(453,897,o),
(355,836,o),
(293,734,o),
(264,603,o),
(264,533,q),
(264,422,o),
(296,261,o),
(360,158,o),
(459,109,o),
(525,109,q)
);
}
);
userData = {
org.robofab.postScriptHintData = {
};
};
vertWidth = 0;
width = 1105;
}
);
unicode = 8706;
},
{
glyphname = percent;
layers = (
{
layerId = "C1664359-F853-4045-A63D-7A2F9FE31172";
shapes = (
{
closed = 1;
nodes = (
(394,864,o),
(450,897,o),
(483,958,o),
(496,1045,o),
(496,1099,q),
(496,1154,o),
(483,1241,o),
(450,1302,o),
(394,1335,o),
(351,1335,q),
(307,1335,o),
(251,1302,o),
(218,1241,o),
(205,1154,o),
(205,1099,q),
(205,1045,o),
(218,958,o),
(251,897,o),
(307,864,o),
(351,864,q)
);
},
{
closed = 1;
nodes = (
(83,1270,o),
(221,1438,o),
(351,1438,q),
(483,1438,o),
(619,1270,o),
(619,1099,q),
(619,761,o),
(351,761,q),
(219,761,o),
(83,928,o),
(83,1099,q)
);
},
{
closed = 1;
nodes = (
(1083,1490,l),
(1196,1423,l),
(314,-77,l),
(205,-12,l)
);
},
{
closed = 1;
nodes = (
(1187,375,o),
(1174,463,o),
(1141,524,o),
(1085,557,o),
(1042,557,q),
(998,557,o),
(941,524,o),
(908,463,o),
(895,375,o),
(895,321,q),
(895,267,o),
(908,179,o),
(941,118,o),
(998,85,o),
(1042,85,q),
(1085,85,o),
(1141,118,o),
(1174,179,o),
(1187,267,o),
(1187,321,q)
);
},
{
closed = 1;
nodes = (
(774,492,o),
(909,660,o),
(1042,660,q),
(1174,660,o),
(1310,492,o),
(1310,321,q),
(1310,-18,o),
(1042,-18,q),
(910,-18,o),
(774,150,o),
(774,321,q)
);
}
);
userData = {
org.robofab.postScriptHintData = {
};
};
vertWidth = 0;
width = 1394;
}
);
unicode = 37;
},
{
glyphname = perthousand;
layers = (
{
layerId = "C1664359-F853-4045-A63D-7A2F9FE31172";
shapes = (
{
closed = 1;
nodes = (
(1186,1414,l),
(305,-87,l),
(196,-21,l),
(1073,1481,l)
);
},
{
closed = 1;
nodes = (
(84,1183,o),
(124,1310,o),
(196,1395,o),
(294,1437,o),
(352,1437,q),
(412,1437,o),
(511,1395,o),
(582,1310,o),
(621,1183,o),
(621,1098,q),
(621,1013,o),
(582,886,o),
(512,802,o),
(413,760,o),
(352,760,q),
(293,760,o),
(194,802,o),
(123,886,o),
(84,1013,o),
(84,1098,q)
);
},
{
closed = 1;
nodes = (
(498,1153,o),
(482,1240,o),
(447,1301,o),
(392,1334,o),
(352,1334,q),
(313,1334,o),
(257,1301,o),
(222,1240,o),
(206,1153,o),
(206,1098,q),
(206,1044,o),
(222,957,o),
(257,896,o),
(313,863,o),
(352,863,q),
(431,863,o),
(498,989,o),
(498,1098,q)
);
},
{
closed = 1;
nodes = (
(1423,395,o),
(1461,522,o),
(1532,606,o),
(1630,648,o),
(1690,648,q),
(1750,648,o),
(1849,606,o),
(1919,522,o),
(1958,395,o),
(1958,310,q),
(1958,225,o),
(1920,98,o),
(1850,13,o),
(1751,-29,o),
(1690,-29,q),
(1631,-29,o),
(1533,13,o),
(1463,98,o),
(1423,225,o),
(1423,310,q)
);
},
{
closed = 1;
nodes = (
(1835,364,o),
(1820,451,o),
(1785,512,o),
(1730,545,o),
(1690,545,q),
(1651,545,o),
(1595,512,o),
(1560,451,o),
(1544,364,o),
(1544,310,q),
(1544,255,o),
(1560,168,o),
(1595,107,o),
(1651,74,o),
(1690,74,q),
(1730,74,o),
(1785,107,o),
(1820,168,o),
(1835,255,o),
(1835,310,q)
);
},
{
closed = 1;
nodes = (
(754,395,o),
(793,522,o),
(863,606,o),
(962,648,o),
(1022,648,q),
(1082,648,o),
(1180,606,o),
(1250,522,o),
(1289,395,o),
(1289,310,q),
(1289,225,o),
(1251,98,o),
(1181,13,o),
(1082,-29,o),
(1022,-29,q),
(963,-29,o),
(865,13,o),
(794,98,o),
(754,225,o),
(754,310,q)
);
},
{
closed = 1;
nodes = (
(1167,364,o),
(1151,451,o),
(1117,512,o),
(1062,545,o),
(1022,545,q),
(982,545,o),
(927,512,o),
(892,451,o),
(876,364,o),
(876,310,q),
(876,255,o),
(892,168,o),
(927,107,o),
(982,74,o),
(1022,74,q),
(1101,74,o),
(1167,200,o),
(1167,310,q)
);
}
);
userData = {
org.robofab.postScriptHintData = {
};
};
vertWidth = 0;
width = 2025;
}
);
unicode = 8240;
},
{
glyphname = lozenge;
layers = (
{
layerId = "C1664359-F853-4045-A63D-7A2F9FE31172";
shapes = (
{
closed = 1;
nodes = (
(489,101,l),
(742,554,l),
(489,1001,l),
(235,554,l)
);
},
{
closed = 1;
nodes = (
(583,1119,l),
(922,554,l),
(587,-6,l),
(387,-6,l),
(56,554,l),
(391,1119,l)
);
}
);
userData = {
org.robofab.postScriptHintData = {
};
};
vertWidth = 0;
width = 978;
}
);
unicode = 9674;
},
{
glyphname = dblgravecomb;
layers = (
{
layerId = "C1664359-F853-4045-A63D-7A2F9FE31172";
shapes = (
{
closed = 1;
nodes = (
(273,1183,l),
(70,1687,l),
(265,1687,l),
(373,1183,l)
);
},
{
closed = 1;
nodes = (
(509,1183,l),
(372,1687,l),
(556,1687,l),
(612,1183,l)
);
}
);
userData = {
org.robofab.postScriptHintData = {
};
};
vertWidth = 0;
width = 714;
}
);
unicode = 783;
},
{
glyphname = breveinvertedcomb;
layers = (
{
layerId = "C1664359-F853-4045-A63D-7A2F9FE31172";
shapes = (
{
closed = 1;
nodes = (
(502,1456,o),
(614,1419,o),
(699,1362,o),
(757,1293,o),
(775,1262,q),
(700,1190,l),
(680,1217,o),
(627,1265,o),
(560,1302,o),
(479,1324,o),
(431,1324,q),
(338,1324,o),
(206,1247,o),
(162,1190,q),
(85,1262,l),
(106,1297,o),
(169,1367,o),
(255,1422,o),
(365,1456,o),
(431,1456,q)
);
}
);
userData = {
org.robofab.postScriptHintData = {
};
};
vertWidth = 0;
width = 861;
}
);
unicode = 785;
},
{
glyphname = commaaccentcomb;
layers = (
{
layerId = "C1664359-F853-4045-A63D-7A2F9FE31172";
shapes = (
{
closed = 1;
nodes = (
(344,-109,l),
(347,-133,o),
(350,-161,q),
(352,-185,o),
(356,-247,o),
(356,-282,q),
(356,-328,o),
(336,-408,o),
(290,-472,o),
(212,-522,o),
(155,-538,q),
(127,-458,l),
(183,-451,o),
(239,-378,o),
(239,-325,q),
(119,-325,l),
(119,-125,l)
);
}
);
userData = {
org.robofab.postScriptHintData = {
};
};
vertWidth = 0;
width = 441;
}
);
unicode = 806;
},
{
glyphname = dieresis;
layers = (
{
layerId = "C1664359-F853-4045-A63D-7A2F9FE31172";
shapes = (
{
closed = 1;
nodes = (
(322,1164,l),
(149,1164,l),
(149,1331,l),
(322,1331,l)
);
},
{
closed = 1;
nodes = (
(698,1164,l),
(524,1164,l),
(524,1331,l),
(698,1331,l)
);
}
);
userData = {
org.robofab.postScriptHintData = {
};
};
vertWidth = 0;
width = 847;
}
);
unicode = 168;
},
{
glyphname = dotaccent;
layers = (
{
layerId = "C1664359-F853-4045-A63D-7A2F9FE31172";
shapes = (
{
closed = 1;
nodes = (
(302,1287,o),
(304,1251,o),
(294,1218,o),
(272,1190,o),
(256,1183,q),
(222,1167,o),
(152,1191,o),
(135,1226,q),
(126,1242,o),
(124,1279,o),
(135,1312,o),
(157,1339,o),
(174,1347,q),
(206,1363,o),
(276,1339,o),
(293,1304,q)
);
}
);
userData = {
org.robofab.postScriptHintData = {
};
};
vertWidth = 0;
width = 421;
}
);
unicode = 729;
},
{
glyphname = grave;
layers = (
{
layerId = "C1664359-F853-4045-A63D-7A2F9FE31172";
shapes = (
{
closed = 1;
nodes = (
(229,1184,l),
(9,1713,l),
(222,1735,l),
(302,1184,l)
);
}
);
userData = {
org.robofab.postScriptHintData = {
};
};
vertWidth = 0;
width = 378;
}
);
unicode = 96;
},
{
glyphname = acute;
layers = (
{
layerId = "C1664359-F853-4045-A63D-7A2F9FE31172";
shapes = (
{
closed = 1;
nodes = (
(387,1707,l),
(147,1155,l),
(75,1155,l),
(162,1707,l)
);
}
);
userData = {
org.robofab.postScriptHintData = {
};
};
vertWidth = 0;
width = 393;
}
);
unicode = 180;
},
{
glyphname = hungarumlaut;
layers = (
{
layerId = "C1664359-F853-4045-A63D-7A2F9FE31172";
shapes = (
{
closed = 1;
nodes = (
(660,1687,l),
(458,1183,l),
(358,1183,l),
(466,1687,l)
);
},
{
closed = 1;
nodes = (
(359,1687,l),
(222,1183,l),
(118,1183,l),
(174,1687,l)
);
}
);
userData = {
org.robofab.postScriptHintData = {
};
};
vertWidth = 0;
width = 714;
}
);
unicode = 733;
},
{
glyphname = circumflex;
layers = (
{
layerId = "C1664359-F853-4045-A63D-7A2F9FE31172";
shapes = (
{
closed = 1;
nodes = (
(470,1665,l),
(692,1172,l),
(496,1172,l),
(381,1539,l),
(369,1539,l),
(257,1172,l),
(62,1172,l),
(281,1665,l)
);
}
);
userData = {
org.robofab.postScriptHintData = {
};
};
vertWidth = 0;
width = 754;
}
);
unicode = 710;
},
{
glyphname = caron;
layers = (
{
layerId = "C1664359-F853-4045-A63D-7A2F9FE31172";
shapes = (
{
closed = 1;
nodes = (
(246,1681,l),
(344,1309,l),
(358,1309,l),
(458,1681,l),
(642,1681,l),
(443,1186,l),
(260,1186,l),
(60,1681,l)
);
}
);
userData = {
org.robofab.postScriptHintData = {
};
};
vertWidth = 0;
width = 703;
}
);
unicode = 711;
},
{
glyphname = breve;
layers = (
{
layerId = "C1664359-F853-4045-A63D-7A2F9FE31172";
shapes = (
{
closed = 1;
nodes = (
(365,1190,o),
(255,1224,o),
(169,1279,o),
(106,1349,o),
(85,1384,q),
(162,1456,l),
(206,1399,o),
(338,1322,o),
(431,1322,q),
(479,1322,o),
(560,1344,o),
(627,1381,o),
(680,1430,o),
(700,1456,q),
(775,1384,l),
(757,1352,o),
(699,1284,o),
(614,1227,o),
(502,1190,o),
(431,1190,q)
);
}
);
userData = {
org.robofab.postScriptHintData = {
};
};
vertWidth = 0;
width = 861;
}
);
unicode = 728;
},
{
glyphname = ring;
layers = (
{
layerId = "C1664359-F853-4045-A63D-7A2F9FE31172";
shapes = (
{
closed = 1;
nodes = (
(243,1102,o),
(151,1135,o),
(84,1198,o),
(47,1289,o),
(47,1347,q),
(47,1403,o),
(84,1492,o),
(151,1554,o),
(243,1587,o),
(299,1587,q),
(353,1587,o),
(443,1554,o),
(508,1492,o),
(545,1403,o),
(545,1347,q),
(545,1288,o),
(508,1197,o),
(442,1135,o),
(352,1102,o),
(299,1102,q)
);
},
{
closed = 1;
nodes = (
(340,1195,o),
(395,1224,o),
(428,1268,o),
(441,1322,o),
(441,1347,q),
(441,1370,o),
(428,1422,o),
(395,1466,o),
(341,1495,o),
(299,1495,q),
(249,1495,o),
(190,1464,o),
(160,1419,o),
(152,1367,o),
(152,1347,q),
(152,1323,o),
(167,1269,o),
(202,1224,o),
(258,1195,o),
(299,1195,q)
);
}
);
userData = {
org.robofab.postScriptHintData = {
};
};
vertWidth = 0;
width = 579;
}
);
unicode = 730;
},
{
glyphname = tilde;
layers = (
{
layerId = "C1664359-F853-4045-A63D-7A2F9FE31172";
shapes = (
{
closed = 1;
nodes = (
(340,1414,o),
(421,1379,o),
(495,1338,o),
(561,1303,o),
(590,1303,q),
(606,1303,o),
(627,1320,o),
(637,1347,o),
(641,1382,o),
(641,1401,q),
(772,1401,l),
(772,1394,l),
(772,1329,o),
(743,1245,o),
(695,1196,o),
(634,1177,o),
(601,1177,q),
(590,1178,o),
(572,1179,o),
(563,1181,q),
(524,1189,o),
(448,1223,o),
(382,1258,o),
(326,1285,o),
(307,1285,q),
(291,1285,o),
(271,1269,o),
(259,1242,o),
(255,1205,o),
(255,1184,q),
(123,1184,l),
(123,1198,l),
(123,1262,o),
(153,1345,o),
(201,1394,o),
(263,1414,o),
(297,1414,q)
);
}
);
userData = {
org.robofab.postScriptHintData = {
};
};
vertWidth = 0;
width = 893;
}
);
unicode = 732;
},
{
glyphname = macron;
layers = (
{
layerId = "C1664359-F853-4045-A63D-7A2F9FE31172";
shapes = (
{
closed = 1;
nodes = (
(150,1319,l),
(741,1319,l),
(741,1185,l),
(150,1185,l)
);
}
);
userData = {
org.robofab.postScriptHintData = {
};
};
vertWidth = 0;
width = 890;
}
);
unicode = 175;
},
{
glyphname = cedilla;
layers = (
{
layerId = "C1664359-F853-4045-A63D-7A2F9FE31172";
shapes = (
{
closed = 1;
nodes = (
(498,-387,o),
(465,-461,o),
(406,-512,o),
(328,-538,o),
(283,-538,q),
(243,-538,o),
(180,-523,o),
(157,-514,q),
(131,-503,o),
(111,-490,q),
(101,-394,l),
(130,-406,o),
(161,-416,q),
(187,-424,o),
(249,-437,o),
(278,-437,q),
(314,-437,o),
(356,-416,o),
(379,-387,o),
(386,-356,o),
(386,-345,q),
(386,-310,o),
(348,-269,o),
(279,-247,o),
(182,-237,o),
(123,-232,q),
(123,-227,o),
(127,-202,o),
(133,-167,o),
(140,-126,o),
(143,-105,q),
(151,-57,o),
(161,2,q),
(263,2,l),
(254,-36,o),
(246,-69,q),
(239,-97,o),
(228,-147,o),
(226,-155,q),
(250,-155,o),
(309,-160,o),
(370,-174,o),
(427,-200,o),
(471,-241,o),
(498,-300,o),
(498,-340,q)
);
}
);
userData = {
org.robofab.postScriptHintData = {
};
};
vertWidth = 0;
width = 537;
}
);
unicode = 184;
},
{
glyphname = ogonek;
layers = (
{
layerId = "C1664359-F853-4045-A63D-7A2F9FE31172";
shapes = (
{
closed = 1;
nodes = (
(510,-439,o),
(486,-448,q),
(466,-456,o),
(406,-468,o),
(364,-468,q),
(290,-468,o),
(184,-427,o),
(114,-358,o),
(81,-268,o),
(81,-218,q),
(81,-152,o),
(133,-54,o),
(216,17,o),
(320,62,o),
(373,75,q),
(373,12,l),
(289,-20,o),
(202,-127,o),
(202,-193,q),
(202,-277,o),
(286,-351,o),
(373,-351,q),
(410,-351,o),
(470,-338,o),
(493,-330,q),
(519,-321,o),
(540,-309,q),
(526,-428,l)
);
}
